<svg width="166" height="67" viewBox="0 0 166 67" fill="none" xmlns="http://www.w3.org/2000/svg">
<path d="M69.116 29V31.856H64.86V43H61.024V31.856H58.588V29H61.024V27.32C61.024 25.7333 61.5187 24.548 62.508 23.764C63.4973 22.98 64.748 22.588 66.26 22.588C66.9133 22.588 67.5013 22.6627 68.024 22.812C68.5467 22.9427 68.948 23.1107 69.228 23.316L68.696 25.864C68.4907 25.7333 68.2573 25.6307 67.996 25.556C67.7347 25.4813 67.4267 25.444 67.072 25.444C66.344 25.444 65.7653 25.612 65.336 25.948C64.9067 26.2653 64.692 26.816 64.692 27.6V29H69.116ZM73.344 26.984C71.7573 26.984 70.964 26.3027 70.964 24.94C70.964 23.5587 71.7573 22.868 73.344 22.868C74.9307 22.868 75.724 23.5587 75.724 24.94C75.724 26.3027 74.9307 26.984 73.344 26.984ZM75.248 29V43H71.412V29H75.248ZM78.4807 43V29H81.9247L82.0647 31.632C82.494 30.6613 83.1194 29.9333 83.9407 29.448C84.7807 28.9627 85.742 28.72 86.8247 28.72C88.2807 28.72 89.4847 29.1493 90.4367 30.008C91.3887 30.848 91.8647 32.1173 91.8647 33.816V43H88.0287V34.908C88.0287 33.7133 87.786 32.892 87.3007 32.444C86.834 31.9773 86.2367 31.744 85.5087 31.744C84.986 31.744 84.4727 31.8747 83.9687 32.136C83.4834 32.3787 83.082 32.78 82.7647 33.34C82.466 33.9 82.3167 34.6467 82.3167 35.58V43H78.4807ZM100.269 43.28C99.1113 43.28 98.0753 42.9907 97.1606 42.412C96.2646 41.8333 95.5553 41.012 95.0326 39.948C94.5286 38.8653 94.2766 37.5587 94.2766 36.028C94.2766 34.4787 94.5473 33.1627 95.0886 32.08C95.63 30.9787 96.358 30.148 97.2726 29.588C98.206 29.0093 99.2513 28.72 100.409 28.72C101.417 28.72 102.285 28.9627 103.013 29.448C103.741 29.9333 104.291 30.5773 104.665 31.38V22.868H108.501V43H105.057L104.889 40.284C104.497 41.2173 103.89 41.9547 103.069 42.496C102.247 43.0187 101.314 43.28 100.269 43.28ZM101.389 40.34C102.378 40.34 103.171 39.9573 103.769 39.192C104.366 38.408 104.665 37.3067 104.665 35.888C104.665 34.544 104.366 33.508 103.769 32.78C103.19 32.0333 102.415 31.66 101.445 31.66C100.399 31.66 99.578 32.0333 98.9806 32.78C98.402 33.508 98.1126 34.5813 98.1126 36C98.1126 37.4187 98.402 38.5013 98.9806 39.248C99.5593 39.976 100.362 40.34 101.389 40.34ZM119.671 34.068C119.671 33.2653 119.438 32.64 118.971 32.192C118.523 31.744 117.926 31.52 117.179 31.52C116.489 31.52 115.882 31.6973 115.359 32.052C114.837 32.4067 114.454 32.9947 114.211 33.816L110.935 32.808C111.253 31.576 111.943 30.5867 113.007 29.84C114.09 29.0933 115.537 28.72 117.347 28.72C119.177 28.72 120.651 29.1587 121.771 30.036C122.91 30.8947 123.479 32.1827 123.479 33.9V39.584C123.479 40.2933 123.815 40.648 124.487 40.648C124.805 40.648 125.103 40.6013 125.383 40.508L125.159 42.888C124.674 43.1307 124.067 43.252 123.339 43.252C122.537 43.252 121.837 43.084 121.239 42.748C120.661 42.412 120.269 41.908 120.063 41.236C119.615 41.908 118.971 42.4213 118.131 42.776C117.31 43.112 116.461 43.28 115.583 43.28C114.165 43.28 113.035 42.9627 112.195 42.328C111.374 41.6747 110.963 40.732 110.963 39.5C110.963 38.4547 111.299 37.6053 111.971 36.952C112.643 36.28 113.605 35.8227 114.855 35.58L119.671 34.6V34.068ZM114.799 39.136C114.799 39.6027 114.967 39.9573 115.303 40.2C115.658 40.4427 116.078 40.564 116.563 40.564C117.105 40.564 117.609 40.48 118.075 40.312C118.542 40.144 118.925 39.864 119.223 39.472C119.522 39.0613 119.671 38.52 119.671 37.848V36.98L116.731 37.568C116.097 37.6987 115.611 37.876 115.275 38.1C114.958 38.3053 114.799 38.6507 114.799 39.136ZM130.709 22.868V38.688C130.709 39.3413 130.821 39.7987 131.045 40.06C131.269 40.3213 131.643 40.452 132.165 40.452C132.483 40.452 132.744 40.4333 132.949 40.396C133.155 40.3587 133.416 40.284 133.733 40.172L133.397 42.692C133.08 42.8787 132.679 43.0187 132.193 43.112C131.727 43.224 131.26 43.28 130.793 43.28C129.431 43.28 128.432 42.9533 127.797 42.3C127.181 41.628 126.873 40.564 126.873 39.108V22.868H130.709ZM141.415 28.72C142.815 28.72 144.056 29.0093 145.139 29.588C146.222 30.1667 147.062 30.9973 147.659 32.08C148.275 33.1627 148.583 34.4693 148.583 36C148.583 37.5307 148.275 38.8373 147.659 39.92C147.062 41.0027 146.222 41.8333 145.139 42.412C144.056 42.9907 142.815 43.28 141.415 43.28C139.996 43.28 138.746 42.9907 137.663 42.412C136.599 41.8333 135.759 41.0027 135.143 39.92C134.546 38.8373 134.247 37.5307 134.247 36C134.247 34.4693 134.546 33.1627 135.143 32.08C135.759 30.9973 136.599 30.1667 137.663 29.588C138.746 29.0093 139.996 28.72 141.415 28.72ZM141.415 31.576C140.37 31.576 139.548 31.9493 138.951 32.696C138.372 33.424 138.083 34.5253 138.083 36C138.083 37.4747 138.372 38.5853 138.951 39.332C139.548 40.06 140.37 40.424 141.415 40.424C142.442 40.424 143.244 40.06 143.823 39.332C144.42 38.5853 144.719 37.4747 144.719 36C144.719 34.5253 144.42 33.424 143.823 32.696C143.244 31.9493 142.442 31.576 141.415 31.576ZM157.337 28.72C158.737 28.72 159.978 29.0093 161.061 29.588C162.143 30.1667 162.983 30.9973 163.581 32.08C164.197 33.1627 164.505 34.4693 164.505 36C164.505 37.5307 164.197 38.8373 163.581 39.92C162.983 41.0027 162.143 41.8333 161.061 42.412C159.978 42.9907 158.737 43.28 157.337 43.28C155.918 43.28 154.667 42.9907 153.585 42.412C152.521 41.8333 151.681 41.0027 151.065 39.92C150.467 38.8373 150.169 37.5307 150.169 36C150.169 34.4693 150.467 33.1627 151.065 32.08C151.681 30.9973 152.521 30.1667 153.585 29.588C154.667 29.0093 155.918 28.72 157.337 28.72ZM157.337 31.576C156.291 31.576 155.47 31.9493 154.873 32.696C154.294 33.424 154.005 34.5253 154.005 36C154.005 37.4747 154.294 38.5853 154.873 39.332C155.47 40.06 156.291 40.424 157.337 40.424C158.363 40.424 159.166 40.06 159.745 39.332C160.342 38.5853 160.641 37.4747 160.641 36C160.641 34.5253 160.342 33.424 159.745 32.696C159.166 31.9493 158.363 31.576 157.337 31.576Z" fill="#000D3C"/>
<path d="M35.2971 63.5141H8.70276L11.3298 43.1129H32.67L35.2971 63.5141Z" fill="#D0D1D2"/>
<path d="M3.67151 2.55194H40.3281V27.922H3.67151V2.55194Z" fill="#F2F2F2"/>
<path d="M3.67151 2.55194H8.92566V27.922H3.67151V2.55194Z" fill="#D6D6D6"/>
<path d="M39.6091 5.10395H4.3906C2.98129 5.10395 1.83862 3.96128 1.83862 2.55197C1.83862 1.14267 2.98129 0 4.3906 0H39.6091C41.0184 0 42.1611 1.14267 42.1611 2.55197C42.1611 3.96128 41.0184 5.10395 39.6091 5.10395V5.10395Z" fill="#0078FA"/>
<path d="M9.81461 2.55197C9.81461 1.14267 10.9573 0 12.3666 0H4.3906C2.98129 0 1.83862 1.14267 1.83862 2.55197C1.83862 3.96128 2.98129 5.10395 4.3906 5.10395H12.3666C10.9573 5.10395 9.81461 3.96128 9.81461 2.55197Z" fill="#0078FA"/>
<path d="M36.2508 66.066H7.74918C7.20532 66.066 6.76428 65.625 6.76428 65.0811V61.947C6.76428 61.4031 7.20532 60.9621 7.74918 60.9621H36.2508C36.7947 60.9621 37.2357 61.4031 37.2357 61.947V65.0811C37.2357 65.625 36.7947 66.066 36.2508 66.066Z" fill="#F2F2F2"/>
<path d="M12.0814 65.0811V61.947C12.0814 61.4031 12.5225 60.9621 13.0663 60.9621H7.74918C7.20532 60.9621 6.76428 61.4031 6.76428 61.947V65.0811C6.76428 65.625 7.20532 66.066 7.74918 66.066H13.0663C12.5225 66.066 12.0814 65.625 12.0814 65.0811Z" fill="#D6D6D6"/>
<path d="M22.0001 52.9639C10.9545 52.9639 2.00012 44.0096 2.00012 32.964V31.6973C2.00012 31.226 2.38269 30.8434 2.85397 30.8434H41.1457C41.6175 30.8434 42 31.2255 42 31.6973V32.964C42 44.0096 33.0457 52.9639 22.0001 52.9639Z" fill="#F2F2F2"/>
<path d="M41.1457 30.8434H2.85397C2.38269 30.8434 2.00012 31.2255 2.00012 31.6973V32.964C2.00012 33.1389 2.00214 33.3138 2.00667 33.4882C2.00768 33.5239 2.0097 33.5592 2.01071 33.5945C2.01524 33.7341 2.01978 33.8733 2.02734 34.0119C2.02885 34.0416 2.03137 34.0713 2.03288 34.1006C2.04095 34.2457 2.05002 34.3904 2.06111 34.5346C2.06262 34.5547 2.06514 34.5744 2.06666 34.595C2.07875 34.7488 2.09287 34.9025 2.10849 35.0552C2.1095 35.0643 2.11101 35.0739 2.11202 35.083C2.12916 35.2468 2.14831 35.4096 2.16948 35.5719C2.16948 35.5744 2.16998 35.5769 2.17049 35.5789C2.23702 36.0895 2.32321 36.5936 2.42755 37.0911V37.0916C4.32981 46.1563 12.3693 52.9639 22.0001 52.9639C23.1186 52.9639 24.2148 52.8702 25.2834 52.6937C17.1522 51.3505 10.6757 45.1033 8.99423 37.0916H41.5726C41.8518 35.7594 42 34.3788 42 32.964V31.6973C42 31.2255 41.6175 30.8434 41.1457 30.8434V30.8434Z" fill="#D6D6D6"/>
<path d="M39.6638 19.0831V8.66901H42.4507C43.1206 8.66901 43.6639 9.21237 43.6639 9.88224V15.0825C43.6639 17.2922 41.873 19.0831 39.6638 19.0831V19.0831Z" fill="#FFBA00"/>
<path d="M40.379 34.4646H3.62105C1.621 34.4646 0 32.8436 0 30.8435C0 28.8435 1.621 27.2225 3.62105 27.2225H40.379C42.379 27.2225 44 28.8435 44 30.8435C44 32.8436 42.3785 34.4646 40.379 34.4646Z" fill="#0078FA"/>
<path d="M9.30515 30.8435C9.30515 28.8435 10.9262 27.2225 12.9262 27.2225H3.62105C1.621 27.2225 0 28.8435 0 30.8435C0 32.8436 1.621 34.4646 3.62105 34.4646H12.9262C10.9262 34.4646 9.30515 32.8436 9.30515 30.8435Z" fill="#0078FA"/>
<path d="M16.2288 16.9788C15.8937 16.9788 15.568 16.8044 15.3891 16.4934C15.1406 16.0614 14.6774 15.7928 14.1804 15.7928C13.6829 15.7928 13.2202 16.0614 12.9717 16.4934C12.7051 16.9566 12.1133 17.1164 11.6501 16.8497C11.1869 16.5831 11.0271 15.9918 11.2938 15.5286C11.8865 14.4979 12.9924 13.8577 14.1804 13.8577C15.3684 13.8577 16.4743 14.4979 17.0671 15.5286C17.3332 15.9918 17.1739 16.5831 16.7107 16.8497C16.5585 16.9369 16.3927 16.9788 16.2288 16.9788Z" fill="#000D3C"/>
<path d="M22.6468 20.0645C21.3842 20.0645 20.3605 19.0407 20.3605 17.7781V16.0634H24.9327V17.7781C24.9327 19.0407 23.9089 20.0645 22.6468 20.0645Z" fill="#000D3C"/>
<path d="M31.1127 17.1406C30.5779 17.1406 30.1449 16.7071 30.1449 16.1728V14.6632C30.1449 14.1289 30.5779 13.6954 31.1127 13.6954C31.6475 13.6954 32.0804 14.1289 32.0804 14.6632V16.1728C32.0804 16.7071 31.6475 17.1406 31.1127 17.1406Z" fill="#000D3C"/>
<path d="M31.8676 19.9939H30.358C29.8232 19.9939 29.3903 19.5604 29.3903 19.0261C29.3903 18.4918 29.8232 18.0583 30.358 18.0583H31.8676C32.4019 18.0583 32.8354 18.4918 32.8354 19.0261C32.8354 19.5604 32.4019 19.9939 31.8676 19.9939Z" fill="#EB5757"/>
<path d="M14.9348 19.9939H13.4256C12.8909 19.9939 12.4579 19.5604 12.4579 19.0261C12.4579 18.4918 12.8909 18.0583 13.4256 18.0583H14.9348C15.4695 18.0583 15.9025 18.4918 15.9025 19.0261C15.9025 19.5604 15.4695 19.9939 14.9348 19.9939Z" fill="#EB5757"/>
</svg>
