<svg width="44" height="67" viewBox="0 0 44 67" fill="none" xmlns="http://www.w3.org/2000/svg">
<path d="M35.2971 63.5141H8.70276L11.3298 43.1129H32.67L35.2971 63.5141Z" fill="#D0D1D2"/>
<path d="M3.67151 2.55194H40.3281V27.922H3.67151V2.55194Z" fill="#F2F2F2"/>
<path d="M3.67151 2.55194H8.92566V27.922H3.67151V2.55194Z" fill="#D6D6D6"/>
<path d="M39.6091 5.10395H4.3906C2.98129 5.10395 1.83862 3.96128 1.83862 2.55197C1.83862 1.14267 2.98129 0 4.3906 0H39.6091C41.0184 0 42.1611 1.14267 42.1611 2.55197C42.1611 3.96128 41.0184 5.10395 39.6091 5.10395V5.10395Z" fill="#0078FA"/>
<path d="M9.81461 2.55197C9.81461 1.14267 10.9573 0 12.3666 0H4.3906C2.98129 0 1.83862 1.14267 1.83862 2.55197C1.83862 3.96128 2.98129 5.10395 4.3906 5.10395H12.3666C10.9573 5.10395 9.81461 3.96128 9.81461 2.55197Z" fill="#0078FA"/>
<path d="M36.2508 66.066H7.74918C7.20532 66.066 6.76428 65.625 6.76428 65.0811V61.947C6.76428 61.4031 7.20532 60.9621 7.74918 60.9621H36.2508C36.7947 60.9621 37.2357 61.4031 37.2357 61.947V65.0811C37.2357 65.625 36.7947 66.066 36.2508 66.066Z" fill="#F2F2F2"/>
<path d="M12.0814 65.0811V61.947C12.0814 61.4031 12.5225 60.9621 13.0663 60.9621H7.74918C7.20532 60.9621 6.76428 61.4031 6.76428 61.947V65.0811C6.76428 65.625 7.20532 66.066 7.74918 66.066H13.0663C12.5225 66.066 12.0814 65.625 12.0814 65.0811Z" fill="#D6D6D6"/>
<path d="M22.0001 52.9639C10.9545 52.9639 2.00012 44.0096 2.00012 32.964V31.6973C2.00012 31.226 2.38269 30.8434 2.85397 30.8434H41.1457C41.6175 30.8434 42 31.2255 42 31.6973V32.964C42 44.0096 33.0457 52.9639 22.0001 52.9639Z" fill="#F2F2F2"/>
<path d="M41.1457 30.8434H2.85397C2.38269 30.8434 2.00012 31.2255 2.00012 31.6973V32.964C2.00012 33.1389 2.00214 33.3138 2.00667 33.4882C2.00768 33.5239 2.0097 33.5592 2.01071 33.5945C2.01524 33.7341 2.01978 33.8733 2.02734 34.0119C2.02885 34.0416 2.03137 34.0713 2.03288 34.1006C2.04095 34.2457 2.05002 34.3904 2.06111 34.5346C2.06262 34.5547 2.06514 34.5744 2.06666 34.595C2.07875 34.7488 2.09287 34.9025 2.10849 35.0552C2.1095 35.0643 2.11101 35.0739 2.11202 35.083C2.12916 35.2468 2.14831 35.4096 2.16948 35.5719C2.16948 35.5744 2.16998 35.5769 2.17049 35.5789C2.23702 36.0895 2.32321 36.5936 2.42755 37.0911V37.0916C4.32981 46.1563 12.3693 52.9639 22.0001 52.9639C23.1186 52.9639 24.2148 52.8702 25.2834 52.6937C17.1522 51.3505 10.6757 45.1033 8.99423 37.0916H41.5726C41.8518 35.7594 42 34.3788 42 32.964V31.6973C42 31.2255 41.6175 30.8434 41.1457 30.8434V30.8434Z" fill="#D6D6D6"/>
<path d="M39.6638 19.0831V8.66901H42.4507C43.1206 8.66901 43.6639 9.21237 43.6639 9.88224V15.0825C43.6639 17.2922 41.873 19.0831 39.6638 19.0831V19.0831Z" fill="#FFBA00"/>
<path d="M40.379 34.4646H3.62105C1.621 34.4646 0 32.8436 0 30.8435C0 28.8435 1.621 27.2225 3.62105 27.2225H40.379C42.379 27.2225 44 28.8435 44 30.8435C44 32.8436 42.3785 34.4646 40.379 34.4646Z" fill="#0078FA"/>
<path d="M9.30515 30.8435C9.30515 28.8435 10.9262 27.2225 12.9262 27.2225H3.62105C1.621 27.2225 0 28.8435 0 30.8435C0 32.8436 1.621 34.4646 3.62105 34.4646H12.9262C10.9262 34.4646 9.30515 32.8436 9.30515 30.8435Z" fill="#0078FA"/>
<path d="M16.2288 16.9788C15.8937 16.9788 15.568 16.8044 15.3891 16.4934C15.1406 16.0614 14.6774 15.7928 14.1804 15.7928C13.6829 15.7928 13.2202 16.0614 12.9717 16.4934C12.7051 16.9566 12.1133 17.1164 11.6501 16.8497C11.1869 16.5831 11.0271 15.9918 11.2938 15.5286C11.8865 14.4979 12.9924 13.8577 14.1804 13.8577C15.3684 13.8577 16.4743 14.4979 17.0671 15.5286C17.3332 15.9918 17.1739 16.5831 16.7107 16.8497C16.5585 16.9369 16.3927 16.9788 16.2288 16.9788Z" fill="#000D3C"/>
<path d="M22.6468 20.0645C21.3842 20.0645 20.3605 19.0407 20.3605 17.7781V16.0634H24.9327V17.7781C24.9327 19.0407 23.9089 20.0645 22.6468 20.0645Z" fill="#000D3C"/>
<path d="M31.1127 17.1406C30.5779 17.1406 30.1449 16.7071 30.1449 16.1728V14.6632C30.1449 14.1289 30.5779 13.6954 31.1127 13.6954C31.6475 13.6954 32.0804 14.1289 32.0804 14.6632V16.1728C32.0804 16.7071 31.6475 17.1406 31.1127 17.1406Z" fill="#000D3C"/>
<path d="M31.8676 19.9939H30.358C29.8232 19.9939 29.3903 19.5604 29.3903 19.0261C29.3903 18.4918 29.8232 18.0583 30.358 18.0583H31.8676C32.4019 18.0583 32.8354 18.4918 32.8354 19.0261C32.8354 19.5604 32.4019 19.9939 31.8676 19.9939Z" fill="#EB5757"/>
<path d="M14.9348 19.9939H13.4256C12.8909 19.9939 12.4579 19.5604 12.4579 19.0261C12.4579 18.4918 12.8909 18.0583 13.4256 18.0583H14.9348C15.4695 18.0583 15.9025 18.4918 15.9025 19.0261C15.9025 19.5604 15.4695 19.9939 14.9348 19.9939Z" fill="#EB5757"/>
</svg>
