<svg width="28" height="41" viewBox="0 0 28 41" fill="none" xmlns="http://www.w3.org/2000/svg">
<path d="M23.202 19.8801V19.766H4.00089V19.8801C4.00089 23.6322 6.52728 26.8422 9.94953 27.8836C9.83541 28.2688 9.76409 28.6826 9.73698 29.1263C9.67992 29.7526 9.57864 30.3946 9.46451 31.008L8.50874 35.8587C8.39461 36.4436 8.8511 37 9.45025 37H17.7541C18.3532 37 18.8083 36.4436 18.6942 35.8587L17.7384 31.008C17.6243 30.3946 17.5259 29.7526 17.4674 29.1263C17.4388 28.6826 17.3675 28.2688 17.2534 27.8836C20.6771 26.8422 23.202 23.6322 23.202 19.8801Z" fill="#6DC06B"/>
<path d="M4.58488 4H22.6163C22.9444 4 23.2011 4.25537 23.2011 4.58351V6.29549L22.6591 6.88041L19.5205 15.8162H7.6821L4.54208 6.88041L4 6.29549V4.58351C4 4.25537 4.2582 4 4.58488 4Z" fill="#6DC06B"/>
<path fill-rule="evenodd" clip-rule="evenodd" d="M27.202 15.766V19.8801C27.202 24.1768 24.9825 27.9659 21.6533 30.1804C21.6579 30.2057 21.6625 30.231 21.6672 30.2563L22.6202 35.0927C23.2143 38.1378 20.8797 41 17.7541 41H9.45025C6.33308 41 3.98703 38.1461 4.58276 35.0927L4.58419 35.0854L5.53573 30.2563C5.54045 30.2308 5.54512 30.2054 5.54974 30.1801C2.22144 27.9657 0.000889778 24.1771 0.000889778 19.8801V15.766H3.42469L1.04367 8.99015L0 7.864V4.58351C0 2.02742 2.06793 0 4.58488 0H22.6163C25.141 0 27.2011 2.03375 27.2011 4.58351V7.864L26.1577 8.98993L23.7777 15.766H27.202ZM22.6591 6.88041L23.2011 6.29549V4.58351C23.2011 4.25537 22.9444 4 22.6163 4H4.58488C4.2582 4 4 4.25537 4 4.58351V6.29549L4.54208 6.88041L7.6821 15.8162H19.5205L22.6591 6.88041ZM9.94954 27.8836C9.83541 28.2688 9.76409 28.6826 9.73698 29.1263C9.67992 29.7526 9.57864 30.3946 9.46451 31.008L8.50874 35.8587C8.39461 36.4436 8.8511 37 9.45025 37H17.7541C18.3532 37 18.8083 36.4436 18.6942 35.8587L17.7384 31.008C17.6243 30.3946 17.5259 29.7526 17.4674 29.1263C17.4388 28.6826 17.3675 28.2688 17.2534 27.8836C19.4008 27.2304 21.1946 25.7241 22.2336 23.766C22.8511 22.6022 23.202 21.2788 23.202 19.8801V19.766H4.00089V19.8801C4.00089 21.2788 4.35197 22.6022 4.96967 23.766C6.00897 25.7241 7.80303 27.2304 9.94954 27.8836Z" fill="white"/>
</svg>
