<svg width="252" height="185" viewBox="0 0 252 185" fill="none" xmlns="http://www.w3.org/2000/svg">
<path d="M204.094 82.12H198.429V76.0076C198.429 74.4434 199.698 73.175 201.262 73.175C202.827 73.175 204.094 74.4434 204.094 76.0076V82.12Z" fill="#A0A1B4"/>
<path d="M201.262 143.866C184.636 143.866 177.063 123.125 176.061 107.054C175.661 100.739 176.282 95.1452 177.766 91.8117C177.826 91.6865 177.88 91.5612 177.939 91.436C186.682 72.3712 215.842 72.3712 224.585 91.436C224.644 91.5612 224.698 91.6865 224.758 91.8117C230.017 103.619 224.418 143.866 201.262 143.866Z" fill="#E3DFF2"/>
<path d="M182.451 115.787C182.451 115.787 182.174 115.488 181.68 114.908C181.195 114.319 180.497 113.434 179.788 112.189C179.086 110.946 178.344 109.347 177.874 107.396C177.622 106.424 177.469 105.365 177.361 104.242C177.282 103.118 177.289 101.93 177.392 100.697C177.461 100.082 177.514 99.4554 177.632 98.8174C177.74 98.1924 177.838 97.5573 177.999 96.9019C178.273 95.5882 178.683 94.2751 179.174 92.9411C180.187 90.2928 181.699 87.6242 183.833 85.339C184.891 84.1941 186.089 83.1416 187.394 82.2095L187.887 81.8648C187.978 81.8046 188.035 81.7557 188.153 81.6859L188.405 81.5308L189.416 80.9095C189.754 80.7025 190.138 80.526 190.499 80.3328C190.865 80.142 191.232 79.9476 191.612 79.7991C193.099 79.1038 194.694 78.641 196.307 78.2606C197.931 77.9117 199.595 77.7531 201.262 77.7179C202.929 77.7501 204.594 77.9111 206.217 78.2594C207.83 78.6398 209.426 79.1026 210.913 79.7979C211.295 79.9476 211.656 80.1396 212.018 80.328C212.378 80.5207 212.749 80.6894 213.096 80.9005C213.776 81.3215 214.503 81.7449 215.126 82.2053C216.439 83.1427 217.632 84.1929 218.692 85.3384C220.825 87.6236 222.34 90.291 223.352 92.9405C224.355 95.599 224.889 98.2467 225.133 100.689C225.238 101.934 225.243 103.116 225.165 104.242C225.056 105.365 224.904 106.424 224.652 107.396C224.181 109.348 223.439 110.946 222.737 112.19C222.028 113.435 221.33 114.319 220.845 114.908C220.35 115.488 220.074 115.787 220.074 115.787C220.074 115.787 220.333 115.473 220.795 114.868C221.249 114.258 221.877 113.332 222.533 112.079C223.175 110.823 223.838 109.223 224.219 107.298C224.425 106.34 224.53 105.301 224.592 104.208C224.623 103.114 224.599 101.955 224.467 100.772C224.166 98.3731 223.578 95.8077 222.543 93.2601C221.498 90.721 219.973 88.2211 217.936 86.0445C216.917 84.9598 215.762 83.9633 214.515 83.0873C213.87 82.6209 213.225 82.2608 212.555 81.8505C212.223 81.6513 211.866 81.4945 211.522 81.3132C211.175 81.1361 210.83 80.9554 210.464 80.8164C209.042 80.1641 207.517 79.7389 205.979 79.3882C204.431 79.0686 202.846 78.9332 201.262 78.9094C199.678 78.9308 198.093 79.0674 196.544 79.387C195.007 79.7377 193.482 80.1629 192.06 80.8152C191.692 80.9554 191.351 81.1337 191.01 81.3084C190.667 81.4885 190.323 81.6382 189.983 81.8415L188.967 82.4546L188.714 82.6072C188.661 82.6353 188.562 82.7086 188.489 82.7569L188.014 83.0831C186.759 83.9639 185.608 84.9592 184.587 86.0439C182.551 88.2205 181.024 90.7192 179.98 93.2595C179.474 94.5333 179.038 95.8124 178.745 97.0671C178.574 97.6849 178.459 98.3254 178.336 98.9474C178.207 99.5544 178.14 100.169 178.057 100.763C177.923 101.959 177.901 103.112 177.931 104.208C177.992 105.301 178.098 106.341 178.304 107.298C178.685 109.223 179.348 110.823 179.991 112.079C180.647 113.332 181.275 114.258 181.729 114.868C182.191 115.474 182.451 115.787 182.451 115.787Z" fill="#F6F5F4"/>
<path d="M219.033 114.067C214.286 119.303 206.796 121.855 201.262 121.849C195.728 121.855 188.238 119.303 183.491 114.067C180.134 110.364 178.148 105.325 179.198 98.8902C180.527 90.7264 184.714 85.9318 189.085 83.1171C196.455 78.3644 206.068 78.3644 213.439 83.1171C217.81 85.9318 221.996 90.7264 223.326 98.8902C224.376 105.325 222.39 110.364 219.033 114.067Z" fill="#C4BFE5"/>
<path d="M226.457 107.108C225.443 123.173 217.87 143.866 201.262 143.866C184.654 143.866 177.08 123.173 176.067 107.108L176.073 107.131L176.079 107.173C176.371 108.783 179.967 125.976 201.262 125.976C222.909 125.976 226.266 108.217 226.457 107.108Z" fill="#CFC9E9"/>
<path d="M219.033 114.067C214.286 119.303 206.796 121.855 201.262 121.849C195.728 121.855 188.238 119.303 183.491 114.067C183.384 111.121 183.658 108.086 184.308 105.134C185.757 98.5085 189.079 94.7814 192.382 92.6466C195.096 90.8874 198.179 90.0108 201.262 90.0108C204.345 90.0108 207.428 90.8874 210.141 92.6466C213.445 94.7814 216.767 98.5085 218.216 105.134C218.866 108.086 219.14 111.121 219.033 114.067Z" fill="#BDB9E3"/>
<path d="M226.451 107.158L226.445 107.2C226.249 108.681 224.029 123.596 213.521 132.334C206.39 138.264 196.134 138.264 189.003 132.334C178.496 123.596 176.275 108.681 176.079 107.2L176.073 107.158L176.061 107.081L176.067 107.134C177.081 123.2 184.654 143.892 201.262 143.892C217.87 143.892 225.443 123.2 226.457 107.134L226.463 107.081L226.451 107.158Z" fill="#BDB9E3"/>
<path d="M197.275 58.8505C197.275 56.6483 199.06 54.8628 201.263 54.8628C203.465 54.8628 205.251 56.6483 205.251 58.8505C205.251 61.0534 203.465 62.8388 201.263 62.8388C199.06 62.8388 197.275 61.0534 197.275 58.8505Z" fill="#A0A1B4"/>
<path d="M199.213 57.2608C199.213 56.1289 200.131 55.2112 201.262 55.2112C202.394 55.2112 203.312 56.1289 203.312 57.2608C203.312 58.3926 202.394 59.3104 201.262 59.3104C200.131 59.3104 199.213 58.3926 199.213 57.2608Z" fill="#ACABC8"/>
<path d="M48.0417 75.6349H45.9796V61.323H48.0417V75.6349Z" fill="#8C8E9F"/>
<path d="M49.8433 82.12H44.1781V76.0076C44.1781 74.4434 45.4459 73.175 47.0107 73.175C48.5749 73.175 49.8433 74.4434 49.8433 76.0076V82.12Z" fill="#A0A1B4"/>
<path d="M47.0107 143.866C30.3848 143.866 22.8114 123.125 21.8095 107.054C21.41 100.739 22.0301 95.1452 23.5151 91.8117C23.5747 91.6865 23.6283 91.5612 23.688 91.436C32.4303 72.3712 61.5911 72.3712 70.3333 91.436C70.393 91.5612 70.4466 91.6865 70.5063 91.8117C75.7659 103.619 70.1664 143.866 47.0107 143.866Z" fill="#E3DFF2"/>
<path d="M28.1991 115.787C28.1991 115.787 27.9229 115.488 27.4278 114.908C26.9436 114.319 26.2452 113.434 25.5364 112.189C24.8345 110.946 24.0928 109.347 23.622 107.396C23.3707 106.424 23.2181 105.365 23.1093 104.242C23.0301 103.118 23.0372 101.93 23.1401 100.697C23.2095 100.082 23.2626 99.4554 23.3809 98.8174C23.4888 98.1924 23.5862 97.5573 23.7476 96.9019C24.0211 95.5882 24.4315 94.2751 24.9231 92.9411C25.9361 90.2928 27.4479 87.6242 29.5812 85.339C30.6399 84.1941 31.8372 83.1416 33.1422 82.2095L33.636 81.8648C33.7264 81.8046 33.7835 81.7557 33.9013 81.6859L34.1532 81.5308L35.1641 80.9095C35.503 80.7025 35.8867 80.526 36.2475 80.3328C36.6137 80.142 36.9801 79.9476 37.3603 79.7991C38.847 79.1038 40.4433 78.641 42.0558 78.2606C43.6796 77.9117 45.344 77.7531 47.0108 77.7179C48.6775 77.7501 50.3419 77.9111 51.9657 78.2594C53.5788 78.6398 55.1746 79.1026 56.6612 79.7979C57.0435 79.9476 57.4048 80.1396 57.7662 80.328C58.1258 80.5207 58.4973 80.6894 58.8438 80.9005C59.5242 81.3215 60.2511 81.7449 60.8743 82.2053C62.1874 83.1427 63.3813 84.1929 64.441 85.3384C66.5741 87.6236 68.0882 90.291 69.1001 92.9405C70.1044 95.599 70.6369 98.2467 70.8814 100.689C70.9863 101.934 70.9911 103.116 70.9136 104.242C70.8045 105.365 70.6518 106.424 70.4001 107.396C69.9296 109.348 69.1872 110.946 68.4853 112.19C67.7763 113.435 67.078 114.319 66.5937 114.908C66.0982 115.488 65.8221 115.787 65.8221 115.787C65.8221 115.787 66.0821 115.473 66.5431 114.868C66.9969 114.258 67.626 113.332 68.2814 112.079C68.9236 110.823 69.5867 109.223 69.9672 107.298C70.1735 106.34 70.2791 105.301 70.3399 104.208C70.3715 103.114 70.3483 101.955 70.2153 100.772C69.9147 98.3731 69.3267 95.8077 68.2909 93.2601C67.2461 90.721 65.7219 88.2211 63.6848 86.0445C62.6651 84.9598 61.5106 83.9633 60.2631 83.0873C59.619 82.6209 58.9732 82.2608 58.3029 81.8505C57.9708 81.6513 57.6142 81.4945 57.2701 81.3132C56.9242 81.1361 56.5783 80.9554 56.2128 80.8164C54.7905 80.1641 53.2651 79.7389 51.7278 79.3882C50.1791 79.0686 48.5946 78.9332 47.0108 78.9094C45.4263 78.9308 43.8418 79.0674 42.2932 79.387C40.7558 79.7377 39.2304 80.1629 37.8081 80.8152C37.4408 80.9554 37.1001 81.1337 36.7581 81.3084C36.4155 81.4885 36.0712 81.6382 35.7316 81.8415L34.7154 82.4546L34.4622 82.6072C34.4092 82.6353 34.3108 82.7086 34.2375 82.7569L33.7627 83.0831C32.5074 83.9639 31.3562 84.9592 30.3359 86.0439C28.2993 88.2205 26.7721 90.7192 25.7283 93.2595C25.2221 94.5333 24.787 95.8124 24.4935 97.0671C24.3232 97.6849 24.2076 98.3254 24.0844 98.9474C23.9556 99.5544 23.8881 100.169 23.8054 100.763C23.6709 101.959 23.6495 103.112 23.6793 104.208C23.7408 105.301 23.8461 106.341 24.0528 107.298C24.4336 109.223 25.0968 110.823 25.7393 112.079C26.395 113.332 27.0239 114.258 27.4775 114.868C27.9394 115.474 28.1991 115.787 28.1991 115.787Z" fill="#F6F5F4"/>
<path d="M64.7814 114.067C60.0346 119.303 52.5447 121.855 47.0107 121.849C41.4767 121.855 33.9868 119.303 29.2399 114.067C25.8825 110.364 23.8967 105.325 24.9463 98.8902C26.2762 90.7264 30.4624 85.9318 34.8335 83.1171C42.2043 78.3644 51.8172 78.3644 59.1879 83.1171C63.559 85.9318 67.7452 90.7264 69.0751 98.8902C70.1246 105.325 68.1388 110.364 64.7814 114.067Z" fill="#C4BFE5"/>
<path d="M72.2059 107.108C71.1921 123.173 63.6187 143.866 47.0108 143.866C30.4028 143.866 22.8294 123.173 21.8156 107.108L21.8217 107.131L21.8275 107.173C22.1199 108.783 25.7156 125.976 47.0108 125.976C68.6577 125.976 72.0151 108.217 72.2059 107.108Z" fill="#CFC9E9"/>
<path d="M64.7815 114.067C60.0347 119.303 52.5448 121.855 47.0108 121.849C41.4768 121.855 33.9869 119.303 29.24 114.067C29.1326 111.121 29.407 108.086 30.0569 105.134C31.506 98.5085 34.8275 94.7814 38.1314 92.6466C40.8447 90.8874 43.9278 90.0108 47.0108 90.0108C50.0938 90.0108 53.1769 90.8874 55.8902 92.6466C59.1939 94.7814 62.5155 98.5085 63.9646 105.134C64.6146 108.086 64.8889 111.121 64.7815 114.067Z" fill="#BDB9E3"/>
<path d="M72.1998 107.158L72.1939 107.2C71.9977 108.681 69.7769 123.596 59.2696 132.334C52.1386 138.264 41.8823 138.264 34.7516 132.334C24.244 123.596 22.0235 108.681 21.8274 107.2L21.8216 107.158L21.8095 107.081L21.8155 107.134C22.8293 123.2 30.4027 143.892 47.0107 143.892C63.6186 143.892 71.192 123.2 72.2058 107.134L72.2118 107.081L72.1998 107.158Z" fill="#BDB9E3"/>
<path d="M43.023 58.8505C43.023 56.6483 44.8084 54.8628 47.0107 54.8628C49.2135 54.8628 50.999 56.6483 50.999 58.8505C50.999 61.0534 49.2135 62.8388 47.0107 62.8388C44.8084 62.8388 43.023 61.0534 43.023 58.8505Z" fill="#A0A1B4"/>
<path d="M44.9611 57.2608C44.9611 56.1289 45.8788 55.2112 47.0107 55.2112C48.1431 55.2112 49.0603 56.1289 49.0603 57.2608C49.0603 58.3926 48.1431 59.3104 47.0107 59.3104C45.8788 59.3104 44.9611 58.3926 44.9611 57.2608Z" fill="#ACABC8"/>
<path d="M125.229 75.6349H123.167V61.323H125.229V75.6349Z" fill="#8C8E9F"/>
<path d="M127.031 82.12H121.366V76.0076C121.366 74.4434 122.634 73.175 124.198 73.175C125.762 73.175 127.031 74.4434 127.031 76.0076V82.12Z" fill="#A0A1B4"/>
<path d="M124.198 143.866C107.572 143.866 99.999 123.125 98.9972 107.054C98.5977 100.739 99.2178 95.1452 100.703 91.8117C100.762 91.6865 100.816 91.5612 100.876 91.436C109.618 72.3712 138.779 72.3712 147.521 91.436C147.58 91.5612 147.634 91.6865 147.694 91.8117C152.953 103.619 147.354 143.866 124.198 143.866Z" fill="#E3DFF2"/>
<path d="M105.386 115.787C105.386 115.787 105.11 115.488 104.615 114.908C104.131 114.319 103.433 113.434 102.724 112.189C102.022 110.946 101.28 109.347 100.81 107.396C100.558 106.424 100.406 105.365 100.297 104.242C100.218 103.118 100.224 101.93 100.328 100.697C100.397 100.082 100.45 99.4554 100.569 98.8174C100.677 98.1924 100.774 97.5573 100.935 96.9019C101.208 95.5882 101.619 94.2751 102.11 92.9411C103.124 90.2928 104.636 87.6242 106.769 85.339C107.827 84.1941 109.025 83.1416 110.33 82.2095L110.824 81.8648C110.914 81.8046 110.971 81.7557 111.089 81.6859L111.341 81.5308L112.352 80.9095C112.69 80.7025 113.074 80.526 113.435 80.3328C113.801 80.142 114.168 79.9476 114.548 79.7991C116.034 79.1038 117.631 78.641 119.243 78.2606C120.867 77.9117 122.532 77.7531 124.198 77.7179C125.865 77.7501 127.529 77.9111 129.153 78.2594C130.766 78.6398 132.362 79.1026 133.849 79.7979C134.231 79.9476 134.592 80.1396 134.954 80.328C135.313 80.5207 135.685 80.6894 136.031 80.9005C136.712 81.3215 137.439 81.7449 138.062 82.2053C139.375 83.1427 140.569 84.1929 141.629 85.3384C143.761 87.6236 145.276 90.291 146.288 92.9405C147.292 95.599 147.824 98.2467 148.069 100.689C148.174 101.934 148.179 103.116 148.101 104.242C147.992 105.365 147.839 106.424 147.588 107.396C147.117 109.348 146.375 110.946 145.673 112.19C144.964 113.435 144.266 114.319 143.781 114.908C143.286 115.488 143.01 115.787 143.01 115.787C143.01 115.787 143.27 115.473 143.731 114.868C144.184 114.258 144.814 113.332 145.469 112.079C146.111 110.823 146.774 109.223 147.155 107.298C147.361 106.34 147.467 105.301 147.527 104.208C147.559 103.114 147.536 101.955 147.403 100.772C147.102 98.3731 146.514 95.8077 145.478 93.2601C144.434 90.721 142.909 88.2211 140.872 86.0445C139.853 84.9598 138.698 83.9633 137.451 83.0873C136.806 82.6209 136.161 82.2608 135.49 81.8505C135.158 81.6513 134.802 81.4945 134.458 81.3132C134.111 81.1361 133.766 80.9554 133.4 80.8164C131.978 80.1641 130.453 79.7389 128.915 79.3882C127.367 79.0686 125.782 78.9332 124.198 78.9094C122.614 78.9308 121.029 79.0674 119.481 79.387C117.943 79.7377 116.418 80.1629 114.996 80.8152C114.628 80.9554 114.288 81.1337 113.946 81.3084C113.603 81.4885 113.259 81.6382 112.919 81.8415L111.903 82.4546L111.65 82.6072C111.597 82.6353 111.498 82.7086 111.425 82.7569L110.95 83.0831C109.695 83.9639 108.544 84.9592 107.524 86.0439C105.487 88.2205 103.959 90.7192 102.916 93.2595C102.409 94.5333 101.974 95.8124 101.681 97.0671C101.511 97.6849 101.395 98.3254 101.272 98.9474C101.143 99.5544 101.075 100.169 100.993 100.763C100.858 101.959 100.837 103.112 100.867 104.208C100.928 105.301 101.034 106.341 101.24 107.298C101.621 109.223 102.284 110.823 102.926 112.079C103.582 113.332 104.212 114.258 104.665 114.868C105.127 115.474 105.386 115.787 105.386 115.787Z" fill="#F6F5F4"/>
<path d="M141.969 114.067C137.222 119.303 129.732 121.855 124.198 121.849C118.664 121.855 111.174 119.303 106.428 114.067C103.07 110.364 101.084 105.325 102.134 98.8902C103.464 90.7264 107.65 85.9318 112.021 83.1171C119.392 78.3644 129.005 78.3644 136.375 83.1171C140.747 85.9318 144.933 90.7264 146.263 98.8902C147.312 105.325 145.326 110.364 141.969 114.067Z" fill="#C4BFE5"/>
<path d="M149.393 107.108C148.38 123.173 140.806 143.866 124.198 143.866C107.59 143.866 100.017 123.173 99.0033 107.108L99.0093 107.131L99.0152 107.173C99.3074 108.783 102.903 125.976 124.198 125.976C145.845 125.976 149.203 108.217 149.393 107.108Z" fill="#CFC9E9"/>
<path d="M141.969 114.067C137.222 119.303 129.732 121.855 124.198 121.849C118.664 121.855 111.174 119.303 106.428 114.067C106.32 111.121 106.595 108.086 107.245 105.134C108.694 98.5085 112.015 94.7814 115.319 92.6466C118.032 90.8874 121.115 90.0108 124.198 90.0108C127.281 90.0108 130.364 90.8874 133.078 92.6466C136.381 94.7814 139.703 98.5085 141.152 105.134C141.802 108.086 142.076 111.121 141.969 114.067Z" fill="#BDB9E3"/>
<path d="M149.387 107.158L149.381 107.2C149.185 108.681 146.964 123.596 136.457 132.334C129.326 138.264 119.07 138.264 111.939 132.334C101.431 123.596 99.2107 108.681 99.0151 107.2L99.0091 107.158L98.9972 107.081L99.0032 107.134C100.017 123.2 107.59 143.892 124.198 143.892C140.806 143.892 148.38 123.2 149.393 107.134L149.399 107.081L149.387 107.158Z" fill="#BDB9E3"/>
<path d="M120.211 58.8505C120.211 56.6483 121.996 54.8628 124.198 54.8628C126.401 54.8628 128.187 56.6483 128.187 58.8505C128.187 61.0534 126.401 62.8388 124.198 62.8388C121.996 62.8388 120.211 61.0534 120.211 58.8505Z" fill="#A0A1B4"/>
<path d="M122.149 57.2608C122.149 56.1289 123.066 55.2112 124.198 55.2112C125.33 55.2112 126.248 56.1289 126.248 57.2608C126.248 58.3926 125.33 59.3104 124.198 59.3104C123.066 59.3104 122.149 58.3926 122.149 57.2608Z" fill="#ACABC8"/>
<path d="M32.9115 169.81L32.4764 172.296L32.4703 172.308L31.5938 177.312C28.4214 178.373 23.9309 176.996 23.9309 176.996L24.1156 172.905L24.247 170.072L32.9115 169.81Z" fill="#F4A596"/>
<path d="M23.9665 176.167C23.9665 176.167 28.4561 177.529 31.7144 176.612C31.7144 176.612 32.912 177.282 32.8356 179.921C32.776 181.981 32.1524 183.674 32.1524 183.674H14.8922C14.8922 183.674 14.7998 182.644 15.5133 181.257C16.2265 179.869 19.4104 179.117 20.4805 178.284C21.5507 177.452 23.9665 176.167 23.9665 176.167Z" fill="#362F8C"/>
<path d="M32.9115 169.81L32.4764 172.296L32.4703 172.308C32.369 172.475 29.9534 173.946 24.1156 172.904L24.247 170.072L32.9115 169.81Z" fill="#E28A83"/>
<path d="M61.303 169.81L61.7383 172.296L61.7443 172.308L62.6209 177.312C65.7934 178.373 70.2838 176.996 70.2838 176.996L70.0989 172.905L69.9677 170.072L61.303 169.81Z" fill="#F4A596"/>
<path d="M70.2481 176.167C70.2481 176.167 65.7589 177.529 62.4999 176.612C62.4999 176.612 61.3025 177.282 61.3788 179.921C61.4384 181.981 62.0622 183.674 62.0622 183.674H79.3225C79.3225 183.674 79.4149 182.644 78.7017 181.257C77.9879 179.869 74.8041 179.117 73.7342 178.284C72.6638 177.452 70.2481 176.167 70.2481 176.167Z" fill="#362F8C"/>
<path d="M61.303 169.81L61.7383 172.296L61.7443 172.308C61.8456 172.475 64.2614 173.946 70.0989 172.904L69.9677 170.072L61.303 169.81Z" fill="#E28A83"/>
<path d="M68.1788 106.765C67.1352 95.2859 65.4416 89.1914 65.4416 89.1914L64.4398 79.1599H47.009H29.5781L28.5762 89.1914C28.5762 89.1914 26.8828 95.2859 25.8392 106.765C24.4199 122.395 22.8335 170.922 22.8335 170.922C22.8335 170.922 26.2387 172.293 29.8167 172.293C31.8679 172.293 33.3588 171.572 33.3588 171.572C33.3588 171.572 39.9722 138.753 41.7714 130.304C43.3493 122.894 47.009 105.93 47.009 105.93C47.009 105.93 50.6687 122.894 52.2466 130.304C54.0457 138.753 60.659 171.572 60.659 171.572C60.659 171.572 62.1499 172.293 64.2012 172.293C67.7792 172.293 71.1843 170.922 71.1843 170.922C71.1843 170.922 69.5981 122.395 68.1788 106.765Z" fill="#9BA3C7"/>
<path d="M31.9038 59.5262L31.5101 62.9193L29.4172 80.9047C29.4172 80.9047 16.9955 70.7671 16.5005 66.6881C16.2142 64.3446 17.0491 60.2835 17.8066 57.2601C17.9496 56.6936 18.0869 56.1629 18.218 55.6918L18.3491 55.2087V55.2028C18.6652 54.0817 18.8858 53.372 18.8858 53.372L19.3808 53.6046L31.9038 59.5262Z" fill="#F4A596"/>
<path d="M31.9038 59.5262L31.5101 62.9194C31.3312 62.9015 31.1405 62.8776 30.9378 62.8418C24.5212 61.7207 17.8066 57.2602 17.8066 57.2602L18.218 55.6918L18.3491 55.2088V55.2028L19.3808 53.6047L31.9038 59.5262Z" fill="#E28A83"/>
<path d="M74.6447 53.3721C74.6447 53.3721 77.5268 62.6152 77.0301 66.69C76.5333 70.7647 64.1093 80.9024 64.1093 80.9024L61.625 59.5286L74.6447 53.3721Z" fill="#F4A596"/>
<path d="M61.625 59.5262L62.0186 62.9194C62.1975 62.9015 62.3883 62.8776 62.5911 62.8418C69.0076 61.7207 75.7223 57.2602 75.7223 57.2602L75.3108 55.6918L75.1797 55.2088V55.2028L74.148 53.6047L61.625 59.5262Z" fill="#E28A83"/>
<path d="M52.051 25.1208H41.967C41.967 28.9224 40.5531 29.8908 40.5531 29.8908C41.5239 33.99 47.009 32.6495 47.009 32.6495C47.009 32.6495 52.4941 33.99 53.4649 29.8908C53.4649 29.8908 52.051 28.9224 52.051 25.1208Z" fill="#F4A596"/>
<path d="M64.6527 81.4742L47.0107 82.1201L29.3694 81.4742C29.3694 81.4742 28.7594 83.7105 28.9152 85.7977C28.9152 85.7977 34.4755 89.2015 47.0107 89.2015C59.5463 89.2015 65.1065 85.7977 65.1065 85.7977C65.2627 83.7105 64.6527 81.4742 64.6527 81.4742Z" fill="#362F8C"/>
<path d="M34.3953 83.7349C34.3953 83.7349 33.6872 86.4309 33.8362 88.2199C33.8362 88.2199 34.9916 88.4811 35.414 88.5557C35.414 88.5557 35.5383 85.9467 36.0103 84.1577" fill="#9BA3C7"/>
<path d="M58.7621 83.7349C58.7621 83.7349 59.4705 86.4309 59.3214 88.2199C59.3214 88.2199 58.1658 88.4811 57.7436 88.5557C57.7436 88.5557 57.6195 85.9467 57.1472 84.1577" fill="#9BA3C7"/>
<path d="M47.5105 85.1638L46.579 85.3379L45.6469 85.1638C45.6469 85.1638 45.5849 88.6797 45.6469 89.5247C45.6469 89.5247 46.0322 89.6738 46.579 89.6738C47.1253 89.6738 47.5105 89.5247 47.5105 89.5247C47.5725 88.6797 47.5105 85.1638 47.5105 85.1638Z" fill="#9BA3C7"/>
<path d="M65.692 59.5287L76.8256 56.3502C76.8256 56.3502 72.4485 40.2969 68.0774 36.1226C65.4177 33.5822 58.7925 31.2863 53.5447 29.873L53.4648 29.8909C49.2136 30.8397 44.8043 30.8397 40.553 29.8909L40.4731 29.873C35.2253 31.2863 28.6002 33.5822 25.9405 36.1226C21.5693 40.2969 17.1923 56.3502 17.1923 56.3502L28.3258 59.5287C28.3258 59.5287 29.0177 62.4149 29.2142 67.5792C29.4172 72.7494 27.3835 80.776 29.3931 82.4756C29.3931 82.4756 36.1527 85.7977 47.0089 85.7977C58.3661 85.7977 64.6246 82.4756 64.6246 82.4756C66.6342 80.776 64.6007 72.7494 64.8035 67.5792C65.0003 62.4149 65.692 59.5287 65.692 59.5287Z" fill="#464AA7"/>
<path d="M27.0336 37.1714C27.0336 37.1714 27.0469 38.5752 27.067 40.6809C27.0665 41.7322 27.0968 42.9589 27.1198 44.2708C27.137 44.9268 27.155 45.6042 27.1734 46.2924C27.1953 46.9799 27.2261 47.6782 27.2659 48.3747C27.3385 49.7642 27.469 51.1656 27.5852 52.4686C27.711 53.7746 27.8194 54.9964 27.9417 56.0406C28.1723 58.1331 28.3258 59.5286 28.3258 59.5286C28.3258 59.5286 28.2363 59.1881 28.1047 58.5875C27.9805 57.9853 27.7844 57.1277 27.6094 56.0877C27.435 55.0483 27.2251 53.8354 27.0632 52.5258C26.895 51.2139 26.7573 49.8209 26.6707 48.4081C26.5994 46.9996 26.5754 45.5917 26.5959 44.2726C26.6104 42.9541 26.6798 41.725 26.7327 40.6725C26.7863 39.62 26.8785 38.7452 26.9293 38.1327C26.9878 37.5203 27.0336 37.1714 27.0336 37.1714Z" fill="#3D45A3"/>
<path d="M67.0415 37.1714C67.0415 37.1714 67.0874 37.5203 67.1459 38.1327C67.1966 38.7452 67.2884 39.62 67.3421 40.6725C67.3951 41.725 67.4643 42.9541 67.4786 44.2726C67.4995 45.5917 67.4757 46.9996 67.4041 48.4081C67.3176 49.8209 67.1799 51.2139 67.0117 52.5258C66.8501 53.8354 66.6402 55.0483 66.4655 56.0877C66.2907 57.1277 66.0945 57.9853 65.9705 58.5875C65.8387 59.1881 65.7493 59.5286 65.7493 59.5286C65.7493 59.5286 65.9025 58.1331 66.1333 56.0406C66.2556 54.9964 66.3641 53.7746 66.4899 52.4686C66.6062 51.1656 66.7362 49.7642 66.8089 48.3747C66.8489 47.6782 66.8799 46.9799 66.9014 46.2924C66.9199 45.6042 66.9378 44.9268 66.9551 44.2708C66.9783 42.9589 67.0081 41.7322 67.0081 40.6809C67.0278 38.5752 67.0415 37.1714 67.0415 37.1714Z" fill="#3D45A3"/>
<path d="M49.8618 93.0718C51.6251 92.8744 57.5622 92.151 62.0574 90.9023C62.355 90.8194 62.6525 91.0114 62.6949 91.3167C62.9906 93.4498 64.0062 100.84 64.0062 101.774C64.0062 102.868 60.5278 106.942 58.8384 107.539C57.1484 108.135 51.2471 105.079 50.999 104.383C50.7837 103.78 49.7002 95.7654 49.4151 93.6413C49.377 93.358 49.5773 93.104 49.8618 93.0718Z" fill="#4B64B8"/>
<path d="M43.7273 93.0718C41.9633 92.8744 36.0267 92.151 31.5311 90.9023C31.2339 90.8194 30.9359 91.0114 30.8938 91.3167C30.5977 93.4498 29.582 100.84 29.582 101.774C29.582 102.868 33.0608 106.942 34.7503 107.539C36.4399 108.135 42.3414 105.079 42.5895 104.383C42.8048 103.78 43.8883 95.7654 44.1734 93.6413C44.2115 93.358 44.0112 93.104 43.7273 93.0718Z" fill="#4B64B8"/>
<path d="M37.4415 13.4571C37.4415 13.4571 35.5674 12.2221 34.7581 13.7905C33.9629 15.3308 36.3482 18.6339 37.2924 18.9368C38.237 19.2397 38.4355 18.0888 38.4355 18.0888L37.4415 13.4571Z" fill="#F4A596"/>
<path d="M56.5765 13.4571C56.5765 13.4571 58.4508 12.2221 59.26 13.7905C60.0549 15.3308 57.6696 18.6339 56.7256 18.9368C55.781 19.2397 55.5824 18.0888 55.5824 18.0888L56.5765 13.4571Z" fill="#F4A596"/>
<path d="M57.0494 4.04998C54.0677 3.35466 48.2034 -0.0247707 44.9611 0.969316C42.6789 1.66882 41.4284 3.59556 40.8864 4.67791C40.3038 4.17818 39.024 3.48883 36.9726 4.46682C33.991 5.88907 35.8867 13.614 36.9726 16.5485C39.3085 22.8595 41.9669 25.1208 41.9669 25.1208C41.9669 25.1208 43.6653 26.1268 47.0089 26.1268C50.3532 26.1268 52.0509 25.1208 52.0509 25.1208C57.3476 21.0705 58.6392 8.72165 59.2355 7.4294C59.8319 6.13714 60.0311 4.7459 57.0494 4.04998Z" fill="#212957"/>
<path d="M187.067 169.81L186.632 172.296L186.626 172.308L185.749 177.312C182.576 178.373 178.086 176.996 178.086 176.996L178.271 172.905L178.402 170.072L187.067 169.81Z" fill="#F4A596"/>
<path d="M178.122 176.167C178.122 176.167 182.611 177.529 185.87 176.612C185.87 176.612 187.067 177.282 186.991 179.921C186.931 181.981 186.308 183.674 186.308 183.674H169.047C169.047 183.674 168.955 182.644 169.668 181.257C170.382 179.869 173.566 179.117 174.636 178.284C175.706 177.452 178.122 176.167 178.122 176.167Z" fill="#362F8C"/>
<path d="M187.067 169.81L186.631 172.296L186.626 172.308C186.524 172.475 184.108 173.946 178.271 172.904L178.402 170.072L187.067 169.81Z" fill="#E28A83"/>
<path d="M215.458 169.81L215.894 172.296L215.9 172.308L216.776 177.312C219.949 178.373 224.439 176.996 224.439 176.996L224.254 172.905L224.123 170.072L215.458 169.81Z" fill="#F4A596"/>
<path d="M224.403 176.167C224.403 176.167 219.914 177.529 216.655 176.612C216.655 176.612 215.458 177.282 215.534 179.921C215.594 181.981 216.217 183.674 216.217 183.674H233.478C233.478 183.674 233.57 182.644 232.857 181.257C232.143 179.869 228.959 179.117 227.889 178.284C226.819 177.452 224.403 176.167 224.403 176.167Z" fill="#362F8C"/>
<path d="M215.458 169.81L215.894 172.296L215.9 172.308C216.001 172.475 218.417 173.946 224.254 172.904L224.123 170.072L215.458 169.81Z" fill="#E28A83"/>
<path d="M220.624 90.8826C220.624 90.8826 220.121 93.0651 220.159 93.9972C220.196 94.9287 220.686 98.8382 221.09 99.2712C221.495 99.7035 222.246 99.394 222.451 98.2461C222.699 96.8572 222.917 94.6681 222.917 94.6681L220.624 90.8826Z" fill="#F796C4"/>
<path d="M222.334 106.765C221.29 95.2859 219.597 89.1914 219.597 89.1914L218.595 79.1599H201.164H183.733L182.731 89.1914C182.731 89.1914 181.038 95.2859 179.994 106.765C178.575 122.395 176.989 170.922 176.989 170.922C176.989 170.922 180.394 172.293 183.972 172.293C186.023 172.293 187.514 171.572 187.514 171.572C187.514 171.572 194.127 138.753 195.926 130.304C197.504 122.894 201.164 105.93 201.164 105.93C201.164 105.93 204.824 122.894 206.402 130.304C208.201 138.753 214.814 171.572 214.814 171.572C214.814 171.572 216.305 172.293 218.356 172.293C221.934 172.293 225.339 170.922 225.339 170.922C225.339 170.922 223.753 122.395 222.334 106.765Z" fill="#362F8C"/>
<path d="M173.039 53.3721C173.039 53.3721 170.156 62.6152 170.654 66.69C171.151 70.7647 183.574 80.9024 183.574 80.9024L186.059 59.5286L173.039 53.3721Z" fill="#F4A596"/>
<path d="M186.059 59.5262L185.665 62.9194C185.486 62.9015 185.296 62.8776 185.093 62.8418C178.676 61.7207 171.962 57.2602 171.962 57.2602L172.373 55.6918L172.504 55.2088V55.2028L173.536 53.6047L186.059 59.5262Z" fill="#E28A83"/>
<path d="M231.185 66.69C231.185 66.69 227.799 84.4882 225.867 90.9238C225.867 90.9238 225.414 93.856 225.861 95.744C226.309 97.6326 224.085 105.134 223.824 105.534C223.562 105.934 222.731 106.093 222.954 104.006C223.178 101.918 223.251 98.6016 222.917 97.4835C222.581 96.3654 220.979 93.3342 220.681 91.5696C220.383 89.8057 220.681 69.5053 220.681 69.5053L231.185 66.69Z" fill="#F4A596"/>
<path d="M228.8 53.372C228.8 53.372 231.683 62.6152 231.185 66.69C230.688 70.7647 220.559 81.4742 220.559 81.4742L219.904 69.9948L217.463 58.262L228.8 53.372Z" fill="#F4A596"/>
<path d="M215.78 59.5262L216.173 62.9194C216.352 62.9015 216.543 62.8776 216.746 62.8418C223.162 61.7207 229.877 57.2602 229.877 57.2602L229.465 55.6918L229.334 55.2088V55.2028L228.303 53.6047L215.78 59.5262Z" fill="#E28A83"/>
<path d="M206.206 25.1208H196.122C196.122 28.9224 194.708 29.8908 194.708 29.8908C195.68 33.99 201.164 32.6495 201.164 32.6495C201.164 32.6495 206.649 33.99 207.62 29.8908C207.62 29.8908 206.206 28.9224 206.206 25.1208Z" fill="#F4A596"/>
<path d="M218.808 81.4742L201.166 82.1201L183.525 81.4742C183.525 81.4742 182.914 83.7105 183.07 85.7977C183.07 85.7977 188.63 89.2015 201.166 89.2015C213.702 89.2015 219.262 85.7977 219.262 85.7977C219.418 83.7105 218.808 81.4742 218.808 81.4742Z" fill="#202450"/>
<path d="M188.55 83.7349C188.55 83.7349 187.842 86.4309 187.992 88.2199C187.992 88.2199 189.147 88.4811 189.569 88.5557C189.569 88.5557 189.694 85.9467 190.166 84.1577" fill="#362F8C"/>
<path d="M212.918 83.7349C212.918 83.7349 213.626 86.4309 213.477 88.2199C213.477 88.2199 212.322 88.4811 211.899 88.5557C211.899 88.5557 211.775 85.9467 211.302 84.1577" fill="#362F8C"/>
<path d="M201.666 85.1638L200.734 85.3379L199.802 85.1638C199.802 85.1638 199.74 88.6797 199.802 89.5247C199.802 89.5247 200.187 89.6738 200.734 89.6738C201.281 89.6738 201.666 89.5247 201.666 89.5247C201.728 88.6797 201.666 85.1638 201.666 85.1638Z" fill="#362F8C"/>
<path d="M219.847 59.5287L230.981 56.3502C230.981 56.3502 226.604 40.2969 222.233 36.1226C219.573 33.5822 212.948 31.2863 207.7 29.873L207.62 29.8909C203.369 30.8397 198.959 30.8397 194.708 29.8909L194.628 29.873C189.381 31.2863 182.755 33.5822 180.096 36.1226C175.724 40.2969 171.347 56.3502 171.347 56.3502L182.481 59.5287C182.481 59.5287 183.173 62.4149 183.369 67.5792C183.572 72.7494 181.539 80.776 183.548 82.4756C183.548 82.4756 190.308 85.7977 201.164 85.7977C212.521 85.7977 218.78 82.4756 218.78 82.4756C220.789 80.776 218.756 72.7494 218.959 67.5792C219.155 62.4149 219.847 59.5287 219.847 59.5287Z" fill="#9BA3C7"/>
<path d="M181.189 37.1714C181.189 37.1714 181.202 38.5752 181.222 40.6809C181.221 41.7322 181.252 42.9589 181.275 44.2708C181.292 44.9268 181.31 45.6042 181.329 46.2924C181.35 46.9799 181.381 47.6782 181.421 48.3747C181.494 49.7642 181.624 51.1656 181.74 52.4686C181.866 53.7746 181.975 54.9964 182.097 56.0406C182.327 58.1331 182.481 59.5286 182.481 59.5286C182.481 59.5286 182.391 59.1881 182.26 58.5875C182.136 57.9853 181.939 57.1277 181.765 56.0877C181.59 55.0483 181.38 53.8354 181.218 52.5258C181.05 51.2139 180.913 49.8209 180.826 48.4081C180.754 46.9996 180.731 45.5917 180.751 44.2726C180.766 42.9541 180.835 41.725 180.887 40.6725C180.942 39.62 181.034 38.7452 181.084 38.1327C181.143 37.5203 181.189 37.1714 181.189 37.1714Z" fill="#3D45A3"/>
<path d="M221.197 37.1714C221.197 37.1714 221.243 37.5203 221.301 38.1327C221.352 38.7452 221.444 39.62 221.498 40.6725C221.55 41.725 221.62 42.9541 221.634 44.2726C221.655 45.5917 221.631 46.9996 221.559 48.4081C221.473 49.8209 221.335 51.2139 221.167 52.5258C221.005 53.8354 220.795 55.0483 220.621 56.0877C220.446 57.1277 220.25 57.9853 220.126 58.5875C219.994 59.1881 219.904 59.5286 219.904 59.5286C219.904 59.5286 220.058 58.1331 220.289 56.0406C220.411 54.9964 220.519 53.7746 220.645 52.4686C220.761 51.1656 220.891 49.7642 220.964 48.3747C221.004 47.6782 221.035 46.9799 221.057 46.2924C221.075 45.6042 221.093 44.9268 221.11 44.2708C221.134 42.9589 221.164 41.7322 221.163 40.6809C221.183 38.5752 221.197 37.1714 221.197 37.1714Z" fill="#3D45A3"/>
<path d="M204.017 93.0718C205.78 92.8744 211.717 92.151 216.213 90.9023C216.51 90.8194 216.808 91.0114 216.85 91.3167C217.146 93.4498 218.161 100.84 218.161 101.774C218.161 102.868 214.683 106.942 212.994 107.539C211.304 108.135 205.402 105.079 205.154 104.383C204.939 103.78 203.855 95.7654 203.57 93.6413C203.533 93.358 203.732 93.104 204.017 93.0718Z" fill="#2B2D71"/>
<path d="M197.882 93.0718C196.118 92.8744 190.182 92.151 185.686 90.9023C185.389 90.8194 185.091 91.0114 185.049 91.3167C184.753 93.4498 183.737 100.84 183.737 101.774C183.737 102.868 187.216 106.942 188.906 107.539C190.595 108.135 196.497 105.079 196.745 104.383C196.96 103.78 198.043 95.7654 198.328 93.6413C198.367 93.358 198.166 93.104 197.882 93.0718Z" fill="#2B2D71"/>
<path d="M191.596 13.4571C191.596 13.4571 189.723 12.2221 188.913 13.7905C188.118 15.3308 190.503 18.6339 191.447 18.9368C192.392 19.2397 192.591 18.0888 192.591 18.0888L191.596 13.4571Z" fill="#F4A596"/>
<path d="M210.732 13.4571C210.732 13.4571 212.606 12.2221 213.415 13.7905C214.21 15.3308 211.825 18.6339 210.881 18.9368C209.937 19.2397 209.737 18.0888 209.737 18.0888L210.732 13.4571Z" fill="#F4A596"/>
<path d="M211.203 4.46667C209.509 2.54886 206.561 1.126 204.277 0.422329C203.675 0.237467 201.519 -0.00643921 201.167 0.000120163C200.815 -0.00643921 198.659 0.237467 198.057 0.422329C195.773 1.126 192.825 2.54886 191.131 4.46667C188.491 7.4543 190.039 13.6144 191.131 16.5484C193.462 22.8576 196.122 25.1177 196.122 25.1177C196.122 25.1177 197.822 26.1255 201.167 26.1255C204.512 26.1255 206.212 25.1177 206.212 25.1177C206.212 25.1177 208.872 22.8576 211.203 16.5484C212.295 13.6144 213.843 7.4543 211.203 4.46667Z" fill="#212957"/>
<path d="M206.602 27.9968C206.602 27.9968 203.237 28.6611 201.175 28.5866C199.114 28.6611 195.749 27.9968 195.749 27.9968L194.094 30.019C196.769 30.7429 199.393 30.991 201.175 30.991C202.958 30.991 205.582 30.7429 208.257 30.019L206.602 27.9968Z" fill="#4E65B9"/>
<path d="M0.363088 185H251.439C251.639 185 251.802 184.699 251.802 184.329C251.802 183.958 251.639 183.658 251.439 183.658H0.363088C0.162555 183.658 0 183.958 0 184.329C0 184.699 0.162555 185 0.363088 185Z" fill="#362F8C"/>
</svg>
