<svg width="352" height="363" viewBox="0 0 352 363" fill="none" xmlns="http://www.w3.org/2000/svg">
<path d="M199.73 82.8399C166.47 1.66994 64.73 -43.8501 11.34 62.2899C-10 104.73 2.56996 148.77 34.7 179.51C64.85 208.34 104.14 201.58 138.88 220.42C175.23 240.13 181.22 290.3 222.88 300.02C262.76 309.32 307.75 273.19 330.38 242.9C358.76 204.9 363.81 157.67 313.71 142.11C265.12 127 223.29 140.34 199.73 82.8399Z" fill="#3D45A3"/>
<path opacity="0.9" d="M199.73 82.8399C166.47 1.66994 64.73 -43.8501 11.34 62.2899C-10 104.73 2.56996 148.77 34.7 179.51C64.85 208.34 104.14 201.58 138.88 220.42C175.23 240.13 181.22 290.3 222.88 300.02C262.76 309.32 307.75 273.19 330.38 242.9C358.76 204.9 363.81 157.67 313.71 142.11C265.12 127 223.29 140.34 199.73 82.8399Z" fill="white"/>
<path d="M177 362.61C233.957 362.61 280.13 359.915 280.13 356.59C280.13 353.265 233.957 350.57 177 350.57C120.043 350.57 73.87 353.265 73.87 356.59C73.87 359.915 120.043 362.61 177 362.61Z" fill="#F5F5F5"/>
<path d="M96.9999 103.42C96.5978 102.841 96.0777 102.354 95.474 101.99C94.8702 101.626 94.1964 101.394 93.4966 101.309C92.7969 101.224 92.0871 101.288 91.4139 101.497C90.7406 101.706 90.119 102.054 89.5899 102.52C89.0432 102.991 88.5859 103.557 88.2399 104.19C87.1628 103.626 85.9396 103.402 84.7323 103.548C83.5251 103.695 82.3909 104.204 81.4799 105.01C80.3051 106.039 79.4872 107.415 79.144 108.939C78.8008 110.463 78.9499 112.056 79.5699 113.49C78.5042 114.542 77.8436 115.936 77.7046 117.426C77.5656 118.917 77.957 120.409 78.8099 121.64L79.0699 121.97C78.5342 122.454 78.1907 123.114 78.1026 123.83C78.0144 124.547 78.1874 125.271 78.5899 125.87C78.7834 126.152 79.0344 126.389 79.3264 126.567C79.6184 126.745 79.9447 126.859 80.2839 126.901C80.623 126.944 80.9674 126.914 81.2942 126.814C81.621 126.714 81.9229 126.545 82.1799 126.32L100.51 110.77C101.351 110.036 101.891 109.018 102.025 107.91C102.16 106.802 101.88 105.684 101.24 104.77C100.775 104.116 100.11 103.63 99.3456 103.386C98.5807 103.143 97.7575 103.155 96.9999 103.42V103.42Z" fill="#3D45A3"/>
<path opacity="0.8" d="M96.9999 103.42C96.5978 102.841 96.0777 102.354 95.474 101.99C94.8702 101.626 94.1964 101.394 93.4966 101.309C92.7969 101.224 92.0871 101.288 91.4139 101.497C90.7406 101.706 90.119 102.054 89.5899 102.52C89.0432 102.991 88.5859 103.557 88.2399 104.19C87.1628 103.626 85.9396 103.402 84.7323 103.548C83.5251 103.695 82.3909 104.204 81.4799 105.01C80.3051 106.039 79.4872 107.415 79.144 108.939C78.8008 110.463 78.9499 112.056 79.5699 113.49C78.5042 114.542 77.8436 115.936 77.7046 117.426C77.5656 118.917 77.957 120.409 78.8099 121.64L79.0699 121.97C78.5342 122.454 78.1907 123.114 78.1026 123.83C78.0144 124.547 78.1874 125.271 78.5899 125.87C78.7834 126.152 79.0344 126.389 79.3264 126.567C79.6184 126.745 79.9447 126.859 80.2839 126.901C80.623 126.944 80.9674 126.914 81.2942 126.814C81.621 126.714 81.9229 126.545 82.1799 126.32L100.51 110.77C101.351 110.036 101.891 109.018 102.025 107.91C102.16 106.802 101.88 105.684 101.24 104.77C100.775 104.116 100.11 103.63 99.3456 103.386C98.5807 103.143 97.7575 103.155 96.9999 103.42V103.42Z" fill="white"/>
<path d="M44.34 263C43.4838 263.345 42.71 263.867 42.0694 264.532C41.4288 265.197 40.9356 265.989 40.6223 266.857C40.3089 267.726 40.1824 268.65 40.2509 269.571C40.3194 270.492 40.5815 271.388 41.02 272.2C41.4565 273.036 42.0468 273.783 42.76 274.4C41.7268 275.611 41.084 277.106 40.9163 278.689C40.7485 280.272 41.0635 281.869 41.82 283.27C42.7925 285.068 44.3083 286.513 46.1508 287.398C47.9933 288.284 50.0685 288.564 52.08 288.2C53.1126 289.863 54.6978 291.109 56.5575 291.72C58.4172 292.33 60.4325 292.267 62.25 291.54L62.74 291.31C63.1901 292.143 63.9309 292.782 64.8216 293.105C65.7122 293.428 66.6904 293.412 67.57 293.06C67.9857 292.895 68.3617 292.644 68.6734 292.323C68.985 292.002 69.2252 291.619 69.3782 291.198C69.5313 290.778 69.5936 290.33 69.5611 289.884C69.5287 289.438 69.4022 289.004 69.19 288.61L54.74 260.68C54.0511 259.405 52.917 258.428 51.5541 257.936C50.1912 257.443 48.6947 257.47 47.35 258.01C46.3734 258.401 45.5509 259.099 45.0076 260C44.4644 260.901 44.2299 261.954 44.34 263V263Z" fill="#3D45A3"/>
<path opacity="0.8" d="M44.34 263C43.4838 263.345 42.71 263.867 42.0694 264.532C41.4288 265.197 40.9356 265.989 40.6223 266.857C40.3089 267.726 40.1824 268.65 40.2509 269.571C40.3194 270.492 40.5815 271.388 41.02 272.2C41.4565 273.036 42.0468 273.783 42.76 274.4C41.7268 275.611 41.084 277.106 40.9163 278.689C40.7485 280.272 41.0635 281.869 41.82 283.27C42.7925 285.068 44.3083 286.513 46.1508 287.398C47.9933 288.284 50.0685 288.564 52.08 288.2C53.1126 289.863 54.6978 291.109 56.5575 291.72C58.4172 292.33 60.4325 292.267 62.25 291.54L62.74 291.31C63.1901 292.143 63.9309 292.782 64.8216 293.105C65.7122 293.428 66.6904 293.412 67.57 293.06C67.9857 292.895 68.3617 292.644 68.6734 292.323C68.985 292.002 69.2252 291.619 69.3782 291.198C69.5313 290.778 69.5936 290.33 69.5611 289.884C69.5287 289.438 69.4022 289.004 69.19 288.61L54.74 260.68C54.0511 259.405 52.917 258.428 51.5541 257.936C50.1912 257.443 48.6947 257.47 47.35 258.01C46.3734 258.401 45.5509 259.099 45.0076 260C44.4644 260.901 44.2299 261.954 44.34 263V263Z" fill="white"/>
<path d="M313.25 167.46C313.339 167.436 313.426 167.406 313.51 167.37C314.089 167.123 314.61 166.756 315.037 166.293C315.464 165.831 315.788 165.282 315.988 164.685C316.187 164.088 316.257 163.455 316.194 162.828C316.131 162.201 315.935 161.595 315.62 161.05C315.461 160.773 315.28 160.509 315.08 160.26C316.83 158.613 317.973 156.423 318.323 154.046C318.673 151.668 318.211 149.242 317.01 147.16C315.827 145.037 314.056 143.3 311.91 142.16C312.763 140.504 313.187 138.661 313.145 136.799C313.104 134.938 312.596 133.116 311.67 131.5C310.739 129.858 309.47 128.432 307.948 127.315C306.427 126.198 304.686 125.416 302.84 125.02C303.071 123.948 302.904 122.828 302.37 121.87C301.704 120.713 300.635 119.843 299.368 119.424C298.101 119.005 296.724 119.068 295.5 119.6C294.627 119.984 293.897 120.63 293.41 121.45C291.804 120.46 289.982 119.873 288.099 119.739C286.217 119.605 284.331 119.928 282.6 120.68C281.352 121.214 280.231 122.006 279.311 123.005C278.391 124.003 277.693 125.185 277.263 126.473C276.833 127.761 276.681 129.125 276.817 130.476C276.952 131.827 277.373 133.133 278.05 134.31L298.82 171.77C299.838 173.535 301.47 174.863 303.405 175.502C305.34 176.14 307.442 176.043 309.31 175.23C310.774 174.602 311.97 173.48 312.69 172.06C313.411 170.64 313.609 169.012 313.25 167.46V167.46Z" fill="#3D45A3"/>
<path opacity="0.8" d="M313.25 167.46C313.339 167.436 313.426 167.406 313.51 167.37C314.089 167.123 314.61 166.756 315.037 166.293C315.464 165.831 315.788 165.282 315.988 164.685C316.187 164.088 316.257 163.455 316.194 162.828C316.131 162.201 315.935 161.595 315.62 161.05C315.461 160.773 315.28 160.509 315.08 160.26C316.83 158.613 317.973 156.423 318.323 154.046C318.673 151.668 318.211 149.242 317.01 147.16C315.827 145.037 314.056 143.3 311.91 142.16C312.763 140.504 313.187 138.661 313.145 136.799C313.104 134.938 312.596 133.116 311.67 131.5C310.739 129.858 309.47 128.432 307.948 127.315C306.427 126.198 304.686 125.416 302.84 125.02C303.071 123.948 302.904 122.828 302.37 121.87C301.704 120.713 300.635 119.843 299.368 119.424C298.101 119.005 296.724 119.068 295.5 119.6C294.627 119.984 293.897 120.63 293.41 121.45C291.804 120.46 289.982 119.873 288.099 119.739C286.217 119.605 284.331 119.928 282.6 120.68C281.352 121.214 280.231 122.006 279.311 123.005C278.391 124.003 277.693 125.185 277.263 126.473C276.833 127.761 276.681 129.125 276.817 130.476C276.952 131.827 277.373 133.133 278.05 134.31L298.82 171.77C299.838 173.535 301.47 174.863 303.405 175.502C305.34 176.14 307.442 176.043 309.31 175.23C310.774 174.602 311.97 173.48 312.69 172.06C313.411 170.64 313.609 169.012 313.25 167.46V167.46Z" fill="white"/>
<path d="M66.51 237.13C65.0733 229.885 64.3499 222.516 64.35 215.13H65.29C65.2887 222.473 66.0088 229.798 67.44 237L66.51 237.13Z" fill="#3D45A3"/>
<path d="M282.08 179.63C280.714 175.581 279.114 171.614 277.29 167.75L278.15 167.34C279.988 171.244 281.601 175.251 282.98 179.34L282.08 179.63Z" fill="#3D45A3"/>
<path d="M275.28 163.72C272.082 157.602 268.322 151.793 264.05 146.37L264.79 145.79C269.101 151.256 272.894 157.111 276.12 163.28L275.28 163.72Z" fill="#3D45A3"/>
<path d="M65.46 209L64.46 208.94C64.61 206.36 64.8399 203.77 65.1499 201.23L66.09 201.35C65.83 203.89 65.6 206.47 65.46 209Z" fill="#3D45A3"/>
<path d="M176.59 324.06C236.75 324.06 285.52 275.29 285.52 215.13C285.52 154.97 236.75 106.2 176.59 106.2C116.43 106.2 67.6599 154.97 67.6599 215.13C67.6599 275.29 116.43 324.06 176.59 324.06Z" fill="#3D45A3"/>
<g opacity="0.3">
<path opacity="0.3" d="M89.11 164.42C88.37 160.46 87.7033 156.637 87.11 152.95C82.5101 159.547 78.6565 166.633 75.62 174.08C82.34 170.78 89.1 164.4 89.11 164.42Z" fill="white"/>
<path opacity="0.3" d="M109.39 288.44C111.96 284.94 113.79 281.57 112.65 278.07C111.51 274.57 98.36 270.71 98.43 270.7C95.3633 268.78 92.33 266.833 89.33 264.86C89.3087 262.151 88.2325 259.558 86.33 257.63C85.3287 256.736 84.1508 256.062 82.8727 255.652C81.5945 255.242 80.2445 255.105 78.91 255.25C76.55 252.07 74.25 248.867 72.01 245.64C78.3174 267.234 91.1551 286.345 108.76 300.35C109.3 299 111.42 293.26 109.39 288.44Z" fill="white"/>
<path opacity="0.3" d="M105.51 137.72L109.28 139.53C111.82 135 114.4 130.73 117.01 126.79C124.66 123.31 132.34 120.11 139.87 117.24C140.81 115.24 141.76 113.32 142.7 111.59C128.98 116.08 116.293 123.26 105.38 132.71C105.41 134.34 105.44 136 105.51 137.72Z" fill="white"/>
<path opacity="0.3" d="M141.86 132.31C145.98 132.68 148.79 127.18 148.78 127.24C148.18 126.04 147.59 124.87 147.01 123.73C143.17 124.87 139.317 126.053 135.45 127.28C135.43 127.23 137.73 131.85 141.86 132.31Z" fill="white"/>
<path opacity="0.3" d="M165.84 159C164.04 155.527 162.28 152.153 160.56 148.88C159.8 146.88 159.06 144.96 158.32 143.06C157.32 144.63 156.22 146.23 155.17 147.85L158.86 153.41C158.113 156.703 157.36 160.08 156.6 163.54C159.693 161.973 162.773 160.46 165.84 159Z" fill="white"/>
<path opacity="0.3" d="M150.09 154.22C149.69 156.51 149.28 158.85 148.89 161.22L154.1 158.78C154.9 157.16 155.69 155.55 156.49 153.97L153.44 151.88L150.09 154.22Z" fill="white"/>
<path opacity="0.3" d="M227.19 118.65L222.99 119.21C219.91 121.28 216.66 123.55 213.24 125.99C213.073 127.323 212.893 128.703 212.7 130.13L209.09 130.35C206.663 127.75 204.27 125.28 201.91 122.94L207.84 123.79L210.94 123.9C211.09 123.05 211.24 122.22 211.39 121.4C205.08 118.6 198.87 116.04 192.86 113.75C189.79 115.12 186.61 116.6 183.35 118.18C181.12 122.18 178.72 126.75 176.22 131.76C174.46 132.793 172.69 133.843 170.91 134.91C170.91 137.72 170.99 140.66 171.04 143.7C174.853 145.52 178.707 147.393 182.6 149.32C184.02 147.88 185.427 146.467 186.82 145.08C186.54 141.64 186.26 138.343 185.98 135.19C187.55 131.86 189.06 128.7 190.5 125.75L194.97 125.68C193.71 127.807 192.41 130.043 191.07 132.39C191.39 134.61 191.723 136.917 192.07 139.31L195.2 141.09C195.2 141.58 195.13 142.09 195.09 142.58L193.63 144.52L195.38 147.52C195.12 148.22 194.85 148.92 194.59 149.63C194.71 150.72 194.83 151.82 194.96 152.93C191.187 153.263 187.403 153.597 183.61 153.93C181.48 151.82 179.37 149.74 177.28 147.72L175.2 148.18C175.36 150.493 175.53 152.853 175.71 155.26L170.14 157.55C168.22 159.463 166.29 161.403 164.35 163.37C162.057 164.63 159.767 165.907 157.48 167.2L162 172.6C161.92 174.6 161.847 176.637 161.78 178.71C158.17 178.88 154.57 179.07 150.99 179.26C150.61 182.313 150.24 185.393 149.88 188.5C150.17 190.69 150.46 192.9 150.75 195.11L156.44 197.53L164.11 191.66C165.73 187.767 167.343 183.913 168.95 180.1L172.08 178.51L177.51 178.98C180.55 181.507 183.6 184.063 186.66 186.65C186.89 188.15 187.13 189.65 187.37 191.17L189.27 190.53C189.58 188.86 189.89 187.2 190.19 185.53C187.897 182.91 185.613 180.307 183.34 177.72L185.34 177.02C187.74 178.68 190.16 180.35 192.57 182.02C193.51 185.353 194.45 188.73 195.39 192.15C196.81 193.66 198.22 195.15 199.64 196.7L202.45 192.99C201.17 191.31 199.887 189.643 198.6 187.99L203.16 185.46C203.507 187.587 203.84 189.73 204.16 191.89C206.16 194.27 208.16 196.653 210.16 199.04L218.22 202.04V205.94L214.22 207.07H206.54L197.29 203.79L194.83 204.6C194.83 205.86 194.83 207.12 194.83 208.37C189.63 203.84 184.4 199.29 179.18 194.79C171.87 196.36 164.54 197.94 157.26 199.54L154 201C152.26 202.74 150.53 204.49 148.81 206.23C148.53 207.76 148.26 209.28 147.99 210.81C144.097 215.883 140.273 220.913 136.52 225.9C136.61 231.9 136.75 237.9 136.94 243.72C141.78 249.26 146.66 254.72 151.49 259.98C157.257 259.02 163.08 258.02 168.96 256.98C172.727 258.66 176.467 260.31 180.18 261.93C179.64 264.443 179.1 266.91 178.56 269.33C180.31 271.75 182.02 274.11 183.72 276.41C184.687 280.41 185.623 284.243 186.53 287.91C185.003 290.263 183.497 292.517 182.01 294.67C183.15 297.37 184.25 299.92 185.3 302.29C186.96 307.29 188.46 311.52 189.75 314.77C193.083 314.503 196.417 314.21 199.75 313.89C202.75 311.89 205.75 309.65 208.88 307.11C209.73 306.21 210.59 305.28 211.45 304.32L214.05 303.84C214.05 302.09 214.1 300.24 214.05 298.29C217.05 296.39 220.05 294.39 223.11 292.29C223.45 286.91 223.65 280.96 223.73 274.57C228.73 269.75 233.73 264.71 238.73 259.57C240.61 255.39 242.46 251.1 244.26 246.75C240.753 247.57 237.197 248.387 233.59 249.2C228.2 238.63 222.23 227.4 216 216L218.94 213.88L221.47 213.55C225.42 220.9 229.25 228.18 232.86 235.26C233.24 238.14 233.593 240.99 233.92 243.81C238.587 241.49 243.217 239.157 247.81 236.81C250.863 233.063 253.863 229.313 256.81 225.56C255.11 223.35 253.37 221.11 251.59 218.86H246.13C243.043 215.973 239.887 213.053 236.66 210.1L241.38 207.86C244.46 210.62 247.523 213.333 250.57 216L267.42 218.23C269.3 221.103 271.12 223.947 272.88 226.76L275.69 225.93C276.163 228.963 276.6 231.963 277 234.93C278.187 239.67 279.257 244.29 280.21 248.79C288.148 224.33 287.183 197.851 277.484 174.034C267.785 150.217 249.978 130.596 227.21 118.64L227.19 118.65Z" fill="white"/>
<path opacity="0.3" d="M236.46 292.08C236.79 290.47 237.11 288.8 237.46 287.08C234.59 289.39 231.71 291.63 228.85 293.77C227.78 296.77 226.68 299.65 225.57 302.27L226.22 304.09L229.4 303.89C231.74 300.36 234.12 296.39 236.46 292.08Z" fill="white"/>
</g>
<path d="M74.3299 175C74.2862 175 74.2432 174.989 74.206 174.965C74.1688 174.942 74.139 174.909 74.1199 174.87C74.0915 174.814 74.0861 174.749 74.1048 174.69C74.1235 174.63 74.1648 174.58 74.2199 174.55C78.9974 171.986 83.424 168.817 87.3899 165.12L87.5099 165.01C86.7999 161.2 86.1499 157.38 85.5799 153.67C85.5769 153.611 85.5955 153.553 85.6322 153.507C85.669 153.461 85.7213 153.431 85.7793 153.421C85.8373 153.411 85.8969 153.423 85.9468 153.454C85.9967 153.485 86.0334 153.533 86.0499 153.59C86.6199 157.35 87.2799 161.21 87.9999 165.06C88.0084 165.103 88.0044 165.147 87.9884 165.188C87.9725 165.229 87.9453 165.264 87.9099 165.29L87.6999 165.48C83.7039 169.204 79.2437 172.397 74.4299 174.98C74.3992 174.996 74.3645 175.003 74.3299 175V175Z" fill="white"/>
<path d="M107.4 301.26C107.374 301.27 107.346 301.27 107.32 301.26C107.291 301.25 107.264 301.234 107.241 301.213C107.218 301.193 107.199 301.168 107.186 301.14C107.173 301.112 107.166 301.081 107.165 301.05C107.164 301.02 107.169 300.989 107.18 300.96C108 298.91 109.71 293.67 107.83 289.22C107.811 289.185 107.801 289.145 107.801 289.105C107.801 289.065 107.811 289.025 107.83 288.99C110.18 285.79 112.2 282.35 111.06 278.84C110.4 276.9 105.38 274.3 97.29 271.72C97.1706 271.684 97.0536 271.641 96.94 271.59C93.88 269.68 90.82 267.71 87.84 265.74C87.8061 265.714 87.7786 265.681 87.7596 265.643C87.7405 265.605 87.7304 265.563 87.73 265.52C87.6977 262.893 86.6431 260.382 84.79 258.52C83.8179 257.65 82.6737 256.993 81.4316 256.594C80.1895 256.194 78.8773 256.06 77.58 256.2C77.5371 256.207 77.4931 256.203 77.4525 256.187C77.412 256.171 77.3766 256.144 77.35 256.11C75.04 253 72.71 249.77 70.44 246.49C70.4049 246.438 70.3916 246.374 70.4028 246.313C70.414 246.251 70.4489 246.196 70.5 246.16C70.5527 246.127 70.6156 246.115 70.6766 246.126C70.7375 246.137 70.7922 246.171 70.83 246.22C73.07 249.46 75.37 252.65 77.65 255.72C78.9977 255.589 80.3579 255.74 81.6441 256.163C82.9302 256.587 84.114 257.274 85.12 258.18C87.0454 260.116 88.1489 262.72 88.2 265.45C91.14 267.38 94.2 269.32 97.2 271.21L97.46 271.3C102.3 272.84 110.57 275.86 111.54 278.72C112.74 282.39 110.72 285.92 108.32 289.19C110.19 293.77 108.47 299.08 107.63 301.19C107.602 301.222 107.565 301.245 107.525 301.257C107.484 301.27 107.441 301.271 107.4 301.26V301.26Z" fill="white"/>
<path d="M107.93 140.44C107.897 140.449 107.863 140.449 107.83 140.44L104.07 138.64C104.032 138.621 103.999 138.592 103.975 138.557C103.951 138.523 103.935 138.482 103.93 138.44C103.87 136.93 103.83 135.33 103.8 133.44C103.799 133.409 103.804 133.378 103.815 133.349C103.826 133.32 103.842 133.293 103.864 133.271C103.885 133.248 103.911 133.231 103.94 133.218C103.968 133.206 103.999 133.2 104.03 133.2V133.2C104.091 133.2 104.15 133.224 104.193 133.267C104.236 133.31 104.26 133.369 104.26 133.43C104.26 135.29 104.33 136.84 104.39 138.3L107.83 139.95C110.37 135.43 112.94 131.2 115.46 127.39C115.483 127.35 115.518 127.319 115.56 127.3C123.14 123.86 130.8 120.66 138.35 117.78C139.27 115.78 140.21 113.91 141.14 112.21C141.151 112.176 141.169 112.145 141.193 112.119C141.218 112.093 141.248 112.073 141.281 112.059C141.314 112.046 141.349 112.041 141.385 112.043C141.421 112.046 141.455 112.056 141.486 112.073C141.517 112.091 141.544 112.115 141.565 112.144C141.585 112.173 141.599 112.206 141.605 112.242C141.611 112.277 141.61 112.313 141.6 112.347C141.59 112.381 141.573 112.413 141.55 112.44C140.62 114.15 139.67 116.05 138.74 118.07C138.71 118.122 138.664 118.164 138.61 118.19C131.06 121.07 123.4 124.27 115.82 127.71C113.28 131.55 110.69 135.81 108.13 140.38C108.103 140.404 108.072 140.423 108.037 140.433C108.002 140.443 107.966 140.446 107.93 140.44V140.44Z" fill="white"/>
<path d="M155.26 164.4C155.233 164.402 155.206 164.399 155.18 164.39C155.154 164.382 155.13 164.368 155.11 164.35C155.075 164.324 155.049 164.288 155.035 164.247C155.021 164.206 155.019 164.162 155.03 164.12C155.75 160.8 156.5 157.42 157.27 154.12C156.03 152.27 154.82 150.44 153.63 148.65C153.604 148.612 153.59 148.566 153.59 148.52C153.59 148.474 153.604 148.428 153.63 148.39C154.69 146.77 155.75 145.17 156.79 143.6C156.814 143.562 156.848 143.532 156.889 143.514C156.93 143.496 156.976 143.491 157.02 143.5C157.062 143.506 157.102 143.523 157.135 143.549C157.169 143.576 157.194 143.61 157.21 143.65L159.45 149.47C161.16 152.71 162.92 156.09 164.72 159.56C164.732 159.588 164.738 159.619 164.738 159.65C164.738 159.681 164.732 159.711 164.72 159.74C164.697 159.799 164.655 159.848 164.6 159.88C161.55 161.36 158.44 162.88 155.35 164.42C155.319 164.421 155.288 164.414 155.26 164.4V164.4ZM154.11 148.48L157.72 153.91C157.74 153.968 157.74 154.032 157.72 154.09C156.98 157.3 156.26 160.54 155.56 163.74C158.44 162.31 161.32 160.9 164.15 159.52C162.39 156.13 160.66 152.82 158.98 149.62C158.273 147.773 157.577 145.97 156.89 144.21C155.983 145.61 155.057 147.033 154.11 148.48V148.48Z" fill="white"/>
<path d="M147.54 162.13C147.494 162.144 147.446 162.144 147.4 162.13C147.365 162.104 147.337 162.069 147.321 162.028C147.306 161.987 147.302 161.943 147.31 161.9C147.71 159.53 148.11 157.19 148.52 154.9C148.528 154.837 148.56 154.779 148.61 154.74L151.96 152.41C152.001 152.385 152.047 152.372 152.095 152.372C152.143 152.372 152.189 152.385 152.23 152.41L155.23 154.41L155.32 154.47C155.368 154.501 155.403 154.549 155.418 154.604C155.433 154.66 155.427 154.719 155.4 154.77C154.6 156.35 153.81 157.96 153.01 159.58C152.983 159.629 152.941 159.668 152.89 159.69L147.68 162.13H147.54ZM149 155C148.62 157.12 148.25 159.28 147.88 161.46L152.61 159.26C153.37 157.72 154.123 156.2 154.87 154.7L152.13 152.82L149 155Z" fill="white"/>
<path d="M188.4 315.65C188.353 315.648 188.307 315.633 188.268 315.607C188.229 315.58 188.199 315.543 188.18 315.5C186.92 312.32 185.42 308.12 183.73 303.01C182.68 300.64 181.57 298.08 180.45 295.4C180.432 295.366 180.423 295.328 180.423 295.29C180.423 295.252 180.432 295.214 180.45 295.18C181.92 293.03 183.45 290.79 184.92 288.51C184.03 284.93 183.1 281.13 182.14 277.16C180.45 274.86 178.72 272.49 177.01 270.11C176.995 270.081 176.987 270.048 176.987 270.015C176.987 269.982 176.995 269.949 177.01 269.92C177.53 267.57 178.01 265.16 178.59 262.71C174.98 261.14 171.29 259.51 167.59 257.87C161.68 258.87 155.82 259.87 150.19 260.87C150.152 260.879 150.112 260.877 150.075 260.865C150.038 260.853 150.005 260.83 149.98 260.8C145.16 255.55 140.27 250.08 135.42 244.54C135.391 244.494 135.371 244.443 135.36 244.39C135.17 238.6 135.03 232.6 134.94 226.56C134.941 226.509 134.959 226.46 134.99 226.42C138.73 221.42 142.58 216.42 146.42 211.37L147.23 206.85C147.243 206.805 147.267 206.764 147.3 206.73C149.02 204.98 150.75 203.24 152.49 201.49C152.513 201.485 152.537 201.485 152.56 201.49L155.98 200.01C163.33 198.4 170.71 196.8 177.98 195.25C178.016 195.24 178.055 195.24 178.091 195.249C178.128 195.258 178.162 195.275 178.19 195.3C183.19 199.63 188.33 204.09 193.44 208.54C193.44 207.46 193.44 206.38 193.44 205.3C193.439 205.25 193.454 205.2 193.483 205.159C193.512 205.118 193.553 205.087 193.6 205.07L196.06 204.26C196.108 204.241 196.162 204.241 196.21 204.26L205.43 207.53H213L216.8 206.46C216.8 205.27 216.8 204.09 216.8 202.91L208.89 200.01L208.79 199.94C206.79 197.553 204.79 195.167 202.79 192.78C202.761 192.749 202.74 192.711 202.73 192.67C202.41 190.67 202.08 188.59 201.73 186.57L197.73 188.8L201.41 193.61C201.439 193.651 201.455 193.7 201.455 193.75C201.455 193.8 201.439 193.849 201.41 193.89L198.6 197.61C198.578 197.637 198.551 197.659 198.52 197.675C198.489 197.69 198.455 197.699 198.42 197.7C198.387 197.704 198.353 197.699 198.321 197.687C198.29 197.675 198.262 197.655 198.24 197.63C196.82 196.097 195.4 194.577 193.98 193.07C193.957 193.04 193.94 193.006 193.93 192.97C193 189.6 192.06 186.24 191.13 182.97C188.77 181.317 186.417 179.683 184.07 178.07L182.49 178.62C184.69 181.113 186.897 183.63 189.11 186.17C189.131 186.197 189.146 186.227 189.154 186.26C189.163 186.293 189.165 186.327 189.16 186.36C188.86 188.02 188.55 189.68 188.24 191.36C188.233 191.401 188.216 191.439 188.19 191.47C188.163 191.502 188.129 191.526 188.09 191.54L186.18 192.19C186.149 192.204 186.114 192.212 186.08 192.212C186.045 192.212 186.011 192.204 185.98 192.19C185.95 192.174 185.924 192.151 185.905 192.123C185.886 192.096 185.874 192.064 185.87 192.03L185.18 187.6C182.16 185.053 179.16 182.53 176.18 180.03L170.9 179.57L167.9 181.09C166.31 184.88 164.7 188.71 163.1 192.57C163.082 192.607 163.059 192.641 163.03 192.67C160.47 194.623 157.91 196.58 155.35 198.54C155.313 198.559 155.272 198.569 155.23 198.569C155.188 198.569 155.147 198.559 155.11 198.54L149.34 196C149.304 195.984 149.272 195.959 149.247 195.928C149.223 195.896 149.207 195.859 149.2 195.82C148.91 193.6 148.62 191.4 148.34 189.2C148.7 186.04 149.07 182.95 149.44 179.9C149.447 179.846 149.473 179.796 149.513 179.76C149.554 179.723 149.606 179.702 149.66 179.7L160.24 179.15C160.31 177.21 160.37 175.27 160.45 173.36L155.92 168.09C155.896 168.063 155.878 168.031 155.868 167.997C155.858 167.962 155.855 167.926 155.86 167.89C155.866 167.856 155.88 167.823 155.901 167.796C155.922 167.768 155.949 167.745 155.98 167.73C158.273 166.443 160.553 165.17 162.82 163.91C164.76 161.95 166.683 160.02 168.59 158.12C168.61 158.095 168.638 158.077 168.67 158.07C170.48 157.32 172.28 156.57 174.08 155.84C173.91 153.49 173.74 151.18 173.58 148.93C173.574 148.873 173.589 148.817 173.622 148.77C173.655 148.724 173.704 148.692 173.76 148.68L175.85 148.22C175.889 148.21 175.929 148.21 175.968 148.221C176.006 148.231 176.042 148.252 176.07 148.28C178.13 150.28 180.24 152.35 182.32 154.42C185.99 154.07 189.69 153.73 193.32 153.42C193.21 152.42 193.09 151.42 192.98 150.36C192.975 150.323 192.975 150.286 192.98 150.25L193.73 148.25C193.17 147.25 192.61 146.3 192.04 145.33C192.016 145.291 192.003 145.246 192.003 145.2C192.003 145.154 192.016 145.109 192.04 145.07L193.46 143.19L193.55 141.91L190.55 140.21C190.518 140.19 190.491 140.164 190.47 140.133C190.45 140.102 190.436 140.067 190.43 140.03C190.11 137.65 189.777 135.343 189.43 133.11C189.42 133.06 189.42 133.009 189.43 132.96C190.69 130.77 191.93 128.63 193.11 126.61L189.22 126.68C187.83 129.53 186.34 132.68 184.79 135.92C185.07 139.09 185.35 142.4 185.62 145.75C185.624 145.785 185.619 145.82 185.607 145.853C185.595 145.886 185.575 145.916 185.55 145.94C184.163 147.333 182.757 148.747 181.33 150.18C181.291 150.208 181.243 150.224 181.195 150.224C181.146 150.224 181.099 150.208 181.06 150.18C177.23 148.29 173.34 146.4 169.5 144.57C169.461 144.551 169.427 144.521 169.404 144.484C169.381 144.447 169.369 144.404 169.37 144.36C169.317 141.313 169.273 138.383 169.24 135.57C169.239 135.528 169.248 135.487 169.267 135.45C169.286 135.414 169.315 135.382 169.35 135.36C171.123 134.3 172.873 133.263 174.6 132.25C177.14 127.18 179.53 122.63 181.71 118.71C181.733 118.67 181.768 118.639 181.81 118.62C185.03 117.06 188.23 115.62 191.33 114.19C191.358 114.178 191.389 114.172 191.42 114.172C191.451 114.172 191.481 114.178 191.51 114.19C197.51 116.48 203.77 119.05 210.05 121.85C210.099 121.872 210.139 121.909 210.165 121.956C210.19 122.003 210.199 122.057 210.19 122.11C210.043 122.923 209.893 123.753 209.74 124.6C209.727 124.656 209.695 124.707 209.649 124.743C209.604 124.779 209.548 124.799 209.49 124.8L206.4 124.69L201.15 123.93C203.3 126.08 205.52 128.37 207.75 130.77L211.06 130.57C211.24 129.22 211.41 127.9 211.57 126.63C211.581 126.563 211.616 126.502 211.67 126.46C215.09 124.02 218.37 121.73 221.43 119.68C221.463 119.671 221.497 119.671 221.53 119.68L225.72 119.12C225.751 119.116 225.784 119.118 225.814 119.126C225.845 119.135 225.874 119.149 225.899 119.168C225.924 119.188 225.945 119.212 225.961 119.24C225.976 119.268 225.986 119.298 225.99 119.33C225.994 119.36 225.992 119.391 225.984 119.421C225.977 119.45 225.963 119.478 225.944 119.502C225.926 119.526 225.903 119.546 225.876 119.561C225.85 119.577 225.82 119.586 225.79 119.59L221.65 120.14C218.65 122.14 215.4 124.42 212.03 126.83C211.86 128.13 211.69 129.48 211.5 130.83C211.493 130.885 211.468 130.936 211.427 130.974C211.387 131.013 211.335 131.036 211.28 131.04L207.67 131.26C207.601 131.256 207.535 131.232 207.48 131.19C205.05 128.58 202.64 126.08 200.31 123.78C200.281 123.741 200.266 123.693 200.266 123.645C200.266 123.596 200.281 123.549 200.31 123.51C200.326 123.462 200.36 123.422 200.404 123.398C200.449 123.374 200.501 123.367 200.55 123.38C202.55 123.65 204.55 123.94 206.48 124.23L209.35 124.33C209.48 123.61 209.61 122.91 209.73 122.22C203.55 119.47 197.41 116.93 191.48 114.68C188.48 116.04 185.28 117.5 182.13 119.03C179.95 122.94 177.57 127.48 175.04 132.54C175.014 132.58 174.98 132.615 174.94 132.64C173.233 133.64 171.503 134.667 169.75 135.72C169.75 138.44 169.83 141.28 169.88 144.22C173.63 146.01 177.42 147.85 181.16 149.7C182.493 148.333 183.827 147 185.16 145.7C184.89 142.36 184.61 139.07 184.33 135.92C184.32 135.881 184.32 135.839 184.33 135.8C185.9 132.44 187.43 129.26 188.85 126.36C188.869 126.321 188.899 126.287 188.936 126.264C188.973 126.241 189.016 126.229 189.06 126.23L193.52 126.15C193.6 126.17 193.672 126.212 193.73 126.27C193.75 126.307 193.761 126.348 193.761 126.39C193.761 126.432 193.75 126.473 193.73 126.51C192.49 128.61 191.19 130.85 189.87 133.14C190.18 135.31 190.5 137.56 190.81 139.87L193.81 141.6C193.85 141.62 193.883 141.652 193.904 141.691C193.926 141.731 193.935 141.775 193.93 141.82L193.83 143.31C193.824 143.357 193.807 143.401 193.78 143.44L192.41 145.25C192.97 146.2 193.52 147.16 194.08 148.14C194.106 148.204 194.106 148.276 194.08 148.34L193.31 150.4C193.43 151.47 193.55 152.54 193.67 153.63C193.675 153.662 193.673 153.694 193.664 153.725C193.655 153.756 193.64 153.785 193.62 153.81C193.601 153.834 193.577 153.854 193.549 153.868C193.521 153.882 193.491 153.889 193.46 153.89C189.72 154.22 185.91 154.58 182.11 154.94C182.075 154.944 182.04 154.939 182.007 154.927C181.974 154.915 181.944 154.895 181.92 154.87C179.85 152.81 177.75 150.75 175.69 148.75L173.93 149.14C174.09 151.38 174.25 153.68 174.42 156.02C174.425 156.07 174.412 156.119 174.385 156.161C174.358 156.203 174.317 156.234 174.27 156.25L168.75 158.53C166.85 160.42 164.93 162.35 163 164.3H162.94L156.32 168L160.73 173.12C160.744 173.172 160.744 173.228 160.73 173.28C160.66 175.28 160.58 177.34 160.52 179.39C160.515 179.448 160.489 179.503 160.447 179.544C160.404 179.584 160.349 179.608 160.29 179.61L149.7 180.16C149.33 183.16 148.97 186.16 148.62 189.16C148.89 191.25 149.18 193.41 149.46 195.58L154.9 197.89L162.42 192.14C164.02 188.267 165.623 184.433 167.23 180.64C167.252 180.589 167.291 180.547 167.34 180.52L170.47 178.93C170.49 178.92 170.512 178.915 170.535 178.915C170.557 178.915 170.58 178.92 170.6 178.93L176.03 179.4C176.078 179.401 176.124 179.419 176.16 179.45C179.2 181.977 182.25 184.533 185.31 187.12C185.352 187.16 185.379 187.213 185.39 187.27L186.05 191.51L187.56 191C187.86 189.413 188.15 187.833 188.43 186.26C186.17 183.66 183.913 181.087 181.66 178.54C181.643 178.506 181.634 178.468 181.634 178.43C181.634 178.392 181.643 178.354 181.66 178.32C181.669 178.283 181.687 178.248 181.714 178.22C181.74 178.192 181.773 178.171 181.81 178.16L183.81 177.45C183.843 177.435 183.879 177.428 183.915 177.428C183.951 177.428 183.987 177.435 184.02 177.45C186.433 179.11 188.843 180.777 191.25 182.45C191.274 182.463 191.294 182.482 191.31 182.505C191.326 182.527 191.336 182.553 191.34 182.58C192.28 185.913 193.217 189.27 194.15 192.65L198.15 196.96L200.68 193.61C199.44 191.98 198.19 190.36 196.94 188.73C196.925 188.701 196.917 188.668 196.917 188.635C196.917 188.602 196.925 188.569 196.94 188.54C196.958 188.473 197.001 188.416 197.06 188.38L201.61 185.85C201.644 185.832 201.682 185.823 201.72 185.823C201.758 185.823 201.796 185.832 201.83 185.85C201.864 185.866 201.893 185.889 201.916 185.919C201.939 185.949 201.954 185.983 201.96 186.02C202.31 188.13 202.65 190.26 202.96 192.39C204.96 194.73 206.937 197.083 208.89 199.45C211.557 200.423 214.223 201.4 216.89 202.38C216.935 202.397 216.974 202.427 217.002 202.466C217.031 202.505 217.047 202.552 217.05 202.6C217.05 203.9 217.05 205.2 217.05 206.5C217.053 206.551 217.038 206.602 217.007 206.642C216.975 206.683 216.93 206.71 216.88 206.72L212.88 207.86H205.06L195.88 204.6L193.67 205.34V209C193.673 209.046 193.662 209.093 193.638 209.133C193.614 209.173 193.579 209.205 193.537 209.224C193.495 209.244 193.447 209.25 193.402 209.242C193.356 209.234 193.313 209.212 193.28 209.18C188.08 204.64 182.84 200.1 177.72 195.67C170.53 197.22 163.2 198.81 155.92 200.4L152.59 201.85C150.883 203.563 149.183 205.28 147.49 207L146.68 211.5C146.689 211.536 146.689 211.574 146.68 211.61C142.85 216.61 139.01 221.66 135.26 226.61C135.35 232.61 135.49 238.53 135.68 244.26C140.48 249.74 145.32 255.16 150.09 260.35C155.7 259.42 161.54 258.43 167.43 257.35C167.475 257.335 167.525 257.335 167.57 257.35C171.33 259.02 175.1 260.69 178.78 262.29C178.831 262.312 178.873 262.351 178.898 262.4C178.924 262.449 178.931 262.506 178.92 262.56C178.38 265.04 177.85 267.48 177.32 269.86C179.03 272.22 180.74 274.58 182.42 276.86C182.424 276.89 182.424 276.92 182.42 276.95C183.42 280.95 184.34 284.82 185.24 288.45C185.264 288.511 185.264 288.579 185.24 288.64C183.75 290.91 182.24 293.15 180.79 295.29C181.89 297.92 182.98 300.44 184.02 302.78C185.69 307.78 187.16 311.96 188.41 315.12C191.66 314.85 194.93 314.56 198.13 314.25C201.03 312.32 204.13 310.05 207.2 307.52C208.04 306.64 208.9 305.7 209.75 304.76C209.782 304.719 209.828 304.69 209.88 304.68L210.25 304.61L212.25 304.23C212.25 302.55 212.25 300.75 212.25 298.88C212.249 298.84 212.259 298.8 212.278 298.765C212.298 298.73 212.326 298.701 212.36 298.68C215.36 296.8 218.36 294.82 221.31 292.78C221.64 287.55 221.85 281.64 221.93 275.19C221.933 275.127 221.958 275.067 222 275.02C227 270.26 232 265.21 237 260.02C238.79 256.02 240.58 251.87 242.33 247.67C239.01 248.44 235.58 249.23 232.11 250.01C232.06 250.019 232.008 250.012 231.961 249.991C231.915 249.969 231.876 249.934 231.85 249.89C226.44 239.33 220.51 228.17 214.22 216.71C214.19 216.661 214.181 216.602 214.194 216.546C214.207 216.49 214.241 216.441 214.29 216.41L217.23 214.29C217.265 214.276 217.305 214.276 217.34 214.29L219.86 213.96C219.908 213.949 219.958 213.955 220.002 213.977C220.045 213.999 220.08 214.035 220.1 214.08C224.04 221.39 227.88 228.7 231.5 235.79V235.87C231.86 238.7 232.2 241.47 232.5 244.09C237.14 241.79 241.7 239.5 246.04 237.27C249.04 233.6 252.04 229.88 254.87 226.21C253.23 224.08 251.54 221.91 249.87 219.75H244.52C244.461 219.749 244.405 219.728 244.36 219.69C241.36 216.87 238.16 213.92 234.89 210.93C234.862 210.903 234.84 210.87 234.826 210.834C234.812 210.798 234.807 210.759 234.81 210.72C234.817 210.681 234.833 210.644 234.857 210.612C234.882 210.581 234.914 210.556 234.95 210.54L239.67 208.3C239.709 208.276 239.754 208.264 239.8 208.264C239.846 208.264 239.891 208.276 239.93 208.3C243.06 211.02 246.16 213.74 249.13 216.37L265.91 218.59C265.943 218.594 265.976 218.606 266.003 218.625C266.031 218.645 266.054 218.67 266.07 218.7C267.89 221.49 269.7 224.3 271.44 227.08L274.08 226.3C274.11 226.286 274.142 226.278 274.175 226.278C274.208 226.278 274.24 226.286 274.27 226.3C274.3 226.316 274.325 226.339 274.345 226.366C274.364 226.394 274.376 226.426 274.38 226.46C274.86 229.52 275.3 232.55 275.69 235.46C276.83 239.96 277.91 244.63 278.9 249.3C278.912 249.361 278.9 249.424 278.866 249.476C278.833 249.528 278.78 249.566 278.72 249.58C278.69 249.587 278.658 249.588 278.628 249.583C278.597 249.578 278.568 249.567 278.541 249.55C278.515 249.533 278.493 249.511 278.475 249.485C278.458 249.46 278.446 249.431 278.44 249.4C277.44 244.73 276.37 240.07 275.22 235.55C274.84 232.7 274.42 229.76 273.95 226.79L271.4 227.54C271.35 227.555 271.297 227.553 271.248 227.535C271.2 227.517 271.158 227.484 271.13 227.44C269.38 224.65 267.57 221.81 265.74 219.01L249 216.79C248.952 216.789 248.906 216.771 248.87 216.74C245.92 214.12 242.87 211.42 239.73 208.74L235.47 210.74C238.62 213.64 241.7 216.48 244.61 219.21H249.98C250.017 219.208 250.053 219.215 250.086 219.231C250.12 219.247 250.148 219.27 250.17 219.3C251.93 221.54 253.69 223.79 255.38 226C255.413 226.041 255.431 226.092 255.431 226.145C255.431 226.198 255.413 226.249 255.38 226.29C252.48 230.02 249.46 233.8 246.38 237.54L246.3 237.6C241.85 239.88 237.17 242.24 232.41 244.6C232.376 244.618 232.338 244.627 232.3 244.627C232.262 244.627 232.224 244.618 232.19 244.6C232.157 244.581 232.129 244.556 232.109 244.524C232.088 244.493 232.074 244.457 232.07 244.42C231.75 241.71 231.4 238.85 231.02 235.91C227.43 228.91 223.63 221.64 219.72 214.39L217.42 214.69L214.69 216.69C220.92 228.02 226.79 239.07 232.15 249.53C235.7 248.73 239.23 247.92 242.63 247.12C242.672 247.109 242.716 247.111 242.757 247.125C242.798 247.139 242.834 247.165 242.86 247.2C242.884 247.235 242.898 247.277 242.898 247.32C242.898 247.363 242.884 247.405 242.86 247.44C241.05 251.81 239.2 256.13 237.34 260.27L237.29 260.33C232.29 265.52 227.29 270.56 222.35 275.33C222.27 281.79 222.06 287.72 221.73 292.95C221.728 292.986 221.718 293.02 221.7 293.051C221.683 293.082 221.659 293.109 221.63 293.13C218.63 295.13 215.63 297.13 212.68 299.04C212.68 300.94 212.68 302.76 212.68 304.46C212.681 304.515 212.662 304.568 212.627 304.61C212.592 304.652 212.544 304.68 212.49 304.69L210.25 305.11L209.96 305.16C209.13 306.09 208.29 307.01 207.44 307.9C204.27 310.48 201.19 312.76 198.27 314.71H198.16C194.88 315.02 191.53 315.32 188.16 315.59L188.4 315.65Z" fill="white"/>
<path d="M224.83 305C224.78 304.999 224.732 304.984 224.691 304.955C224.65 304.927 224.618 304.887 224.6 304.84L224.47 304.47L224 303C223.988 302.972 223.982 302.941 223.982 302.91C223.982 302.879 223.988 302.848 224 302.82C225.09 300.26 226.19 297.4 227.27 294.34C227.288 294.295 227.316 294.254 227.35 294.22C230.21 292.09 233.1 289.84 235.96 287.54C236 287.513 236.047 287.498 236.095 287.498C236.143 287.498 236.19 287.513 236.23 287.54C236.272 287.563 236.305 287.598 236.325 287.642C236.345 287.685 236.35 287.733 236.34 287.78C236.05 289.41 235.73 291.1 235.39 292.78V292.85C233.01 297.23 230.62 301.21 228.27 304.67C228.252 304.702 228.226 304.729 228.194 304.748C228.163 304.767 228.127 304.778 228.09 304.78L224.91 304.98L224.83 305ZM224.43 302.95C224.6 303.41 224.76 303.87 224.92 304.31L224.99 304.52L227.88 304.33C230.19 300.91 232.54 296.99 234.88 292.67C235.18 291.21 235.46 289.75 235.72 288.33C233.03 290.48 230.32 292.59 227.64 294.59C226.59 297.6 225.51 300.42 224.43 303V302.95Z" fill="white"/>
<path d="M141.22 21.85C140.33 11.2 157.69 16.18 162.22 22.85C166.75 29.52 158.27 43.23 172.11 47.75C185.95 52.27 176.17 60.89 183.51 74.8C194.31 95.27 128.82 121.23 138.04 79.91C146.64 41.38 120.45 39.09 141.22 21.85Z" fill="#263238"/>
<path d="M175.31 48C174.794 47.9997 174.28 47.9359 173.78 47.81C164.71 45.54 164 39.36 163.32 33.38C162.88 29.48 162.47 25.81 159.85 23.07C159.679 22.8909 159.586 22.6513 159.592 22.4037C159.597 22.1562 159.701 21.921 159.88 21.75C160.059 21.5789 160.299 21.4859 160.546 21.4916C160.794 21.4972 161.029 21.6009 161.2 21.78C164.25 24.97 164.72 29.14 165.2 33.17C165.86 39.01 166.43 44.05 174.2 46C175.54 46.33 176.88 46 177.31 45.3C177.74 44.6 177.31 43.64 176.25 42.53C176.079 42.3509 175.986 42.1113 175.992 41.8637C175.997 41.6162 176.101 41.381 176.28 41.21C176.459 41.0389 176.699 40.946 176.946 40.9516C177.194 40.9572 177.429 41.0609 177.6 41.24C179.96 43.74 179.31 45.56 178.92 46.24C178.52 46.819 177.978 47.2853 177.346 47.5936C176.713 47.9019 176.012 48.0419 175.31 48V48Z" fill="#263238"/>
<path d="M138.2 62.14C138.33 64.53 138.32 66.8 138.31 69.14C138.3 71.48 138.19 73.76 138.07 76.07C137.95 78.38 137.79 80.69 137.54 83C137.29 85.31 137 87.61 136.68 89.91L136.63 90.28L136.55 90.48C135.812 92.3896 134.834 94.1975 133.64 95.86C132.56 97.43 131.46 98.94 130.3 100.38C129.14 101.82 127.92 103.2 126.69 104.56C125.46 105.92 124.19 107.24 122.85 108.56L120.23 106.34L123.23 101.88C124.223 100.4 125.18 98.9033 126.1 97.39C127.04 95.9 127.94 94.39 128.75 92.91C129.521 91.5401 130.16 90.1004 130.66 88.61L130.53 89.19C130.96 84.76 131.13 80.3 131.28 75.83C131.35 73.6 131.37 71.36 131.38 69.13C131.39 66.9 131.38 64.63 131.32 62.48L138.2 62.14Z" fill="#FFB573"/>
<path d="M121.87 104.73L117.66 107.89L121.29 111.01C122.043 110.637 122.693 110.086 123.185 109.405C123.676 108.723 123.994 107.932 124.11 107.1L121.87 104.73Z" fill="#FFB573"/>
<path d="M131.53 55.37C129.53 57.58 129.25 65.37 129.25 65.37L141.78 69.29C141.78 69.29 143.11 57.08 140.21 54.71C139.606 54.1634 138.897 53.7454 138.127 53.4816C137.356 53.2177 136.54 53.1135 135.728 53.1752C134.916 53.237 134.125 53.4634 133.403 53.8407C132.682 54.2181 132.044 54.7384 131.53 55.37Z" fill="#3D45A3"/>
<path d="M115.96 111.25L117.53 115L121.29 111.01L117.66 107.89L115.96 111.25Z" fill="#FFB573"/>
<path d="M132.19 56.66C131.89 60.86 130.93 71.15 136.1 94.55L163.55 93C162.5 82.26 163.15 76.94 167.97 55.91C168.043 55.5924 168.05 55.2633 167.992 54.9426C167.934 54.6219 167.812 54.3163 167.633 54.0443C167.453 53.7723 167.22 53.5395 166.948 53.36C166.676 53.1805 166.371 53.058 166.05 53C163.01 52.4608 159.942 52.1002 156.86 51.92C152.702 51.6251 148.528 51.6251 144.37 51.92C141.12 52.21 137.6 52.78 135.37 53.19C134.529 53.3303 133.758 53.7482 133.182 54.3771C132.606 55.0059 132.257 55.8096 132.19 56.66V56.66Z" fill="#3D45A3"/>
<path d="M146.14 58.91C147.016 59.3118 147.789 59.9078 148.401 60.6528C149.013 61.3979 149.447 62.2723 149.67 63.21C152.84 62.56 159.24 57.31 158.16 51.6C157.136 51.287 156.071 51.1253 155 51.12L146.14 58.91Z" fill="white"/>
<path d="M144.81 58.65C144.014 58.8503 143.275 59.2328 142.652 59.7673C142.029 60.3018 141.539 60.9737 141.22 61.73C140.68 60.0717 140.551 58.3072 140.843 56.5879C141.136 54.8687 141.842 53.2462 142.9 51.86C144.453 51.4487 146.045 51.2006 147.65 51.12L144.81 58.65Z" fill="white"/>
<path d="M113.05 194.22L106.3 193.64L105.47 177.83L112.22 178.41L113.05 194.22Z" fill="#FFB573"/>
<path d="M106 192.58L112.94 189.46C113.058 189.406 113.192 189.396 113.317 189.433C113.442 189.47 113.55 189.55 113.62 189.66L116.87 194.8C116.947 194.932 116.995 195.078 117.011 195.229C117.028 195.38 117.013 195.534 116.967 195.679C116.92 195.824 116.844 195.958 116.743 196.071C116.642 196.185 116.519 196.277 116.38 196.34C113.94 197.39 112.71 197.77 109.66 199.14C107.78 199.98 104.27 202.31 101.66 203.47C99.05 204.63 97.78 202.13 98.75 201.42C101.62 199.446 103.834 196.661 105.11 193.42C105.297 193.043 105.613 192.745 106 192.58Z" fill="#263238"/>
<g opacity="0.2">
<path opacity="0.2" d="M112.22 178.41L105.47 177.83L105.94 186.64L112.68 187.01L112.22 178.41Z" fill="black"/>
</g>
<path d="M136 94.27C136 94.27 111 117.39 106.52 128.27C100.87 142.09 104.4 184.27 104.4 184.27L113.6 185.06C113.6 185.06 114.24 155.35 118.46 136.87C127.35 125.1 161.54 109.63 157.33 93.34L136 94.27Z" fill="#263238"/>
<path opacity="0.2" d="M145.71 106.77C133.63 109.43 126.54 123.07 124.04 131.32C132.25 124.46 145.04 116.88 152.21 108.59C150.77 107.82 148.29 106.21 145.71 106.77Z" fill="black"/>
<path d="M114.31 185.62L103.48 184.69L103.07 179.22L114.3 178.43L114.31 185.62Z" fill="white"/>
<path d="M103.08 194.83H103C102.852 194.779 102.72 194.691 102.616 194.573C102.513 194.456 102.442 194.313 102.41 194.16C102.38 194.068 102.375 193.97 102.394 193.875C102.413 193.781 102.457 193.693 102.52 193.62C103.09 192.98 105.52 193.34 105.79 193.39C105.821 193.395 105.85 193.409 105.873 193.43C105.896 193.452 105.913 193.479 105.92 193.51C105.925 193.54 105.922 193.57 105.912 193.598C105.901 193.626 105.883 193.651 105.86 193.67C105.17 194.18 103.9 195 103.08 194.83ZM105.35 193.63C104.35 193.51 103.06 193.47 102.76 193.82C102.76 193.82 102.68 193.92 102.76 194.06C102.78 194.161 102.826 194.255 102.892 194.334C102.959 194.413 103.044 194.473 103.14 194.51C103.55 194.66 104.37 194.33 105.35 193.63V193.63Z" fill="white"/>
<path d="M105.5 193.64C104.68 193.45 103.27 192.71 103.11 192.03C103.082 191.905 103.098 191.775 103.154 191.66C103.21 191.546 103.304 191.454 103.42 191.4C103.525 191.335 103.643 191.295 103.766 191.281C103.889 191.267 104.013 191.28 104.13 191.32C105.07 191.61 105.87 193.38 105.91 193.46C105.922 193.485 105.929 193.512 105.929 193.54C105.929 193.568 105.922 193.595 105.91 193.62C105.894 193.641 105.873 193.658 105.848 193.669C105.824 193.68 105.797 193.683 105.77 193.68C105.679 193.677 105.588 193.664 105.5 193.64V193.64ZM103.98 191.64C103.847 191.609 103.707 191.63 103.59 191.7C103.41 191.81 103.41 191.91 103.42 191.99C103.53 192.45 104.68 193.14 105.48 193.34C105.18 192.76 104.59 191.83 104.03 191.65L103.98 191.64Z" fill="white"/>
<path opacity="0.2" d="M167.72 57C166.143 57.6785 164.767 58.7516 163.725 60.116C162.683 61.4803 162.01 63.09 161.77 64.79C161.29 68.07 163.84 71.5 164.59 72.92C165.25 68.65 166.25 63.53 167.72 57Z" fill="black"/>
<path d="M155.64 39.37C154.85 43.37 154.06 49.24 156.86 51.92C156.86 51.92 156.7 56.01 145.35 60.41C141.27 54.54 144.35 51.9 144.35 51.9C148.84 50.84 148.72 49.02 147.95 45.9L155.64 39.37Z" fill="#FFB573"/>
<path opacity="0.2" d="M152.52 42L148 45.9C148.193 46.6238 148.32 47.3634 148.38 48.11C150.1 47.87 152.79 46.42 153.16 44.56C153.162 43.6668 152.943 42.787 152.52 42V42Z" fill="black"/>
<path d="M160.89 32.5C159.08 39.07 158.45 41.88 154.37 44.58C148.23 48.65 140.56 44.98 140.37 38.01C140.21 31.73 143.21 22.01 150.28 20.78C151.838 20.4924 153.443 20.6079 154.944 21.1156C156.445 21.6234 157.791 22.5064 158.854 23.6808C159.917 24.8553 160.662 26.2821 161.019 27.8257C161.375 29.3693 161.331 30.9784 160.89 32.5V32.5Z" fill="#FFB573"/>
<path d="M145.73 20.51C142.86 23.18 153.8 28.51 157.13 28.41C152.66 31.86 156.62 38.5399 160.13 36.8899C163.64 35.2399 163.45 26.71 161.64 23.69C159.83 20.67 150.31 16.28 145.73 20.51Z" fill="#263238"/>
<path d="M150.12 21.6699C152.23 24.1399 140.52 27.4499 141.84 23.5799C143.59 18.4399 148.02 19.1999 150.12 21.6699Z" fill="#263238"/>
<path d="M149.92 32C149.8 32.54 149.42 32.92 149.07 32.85C148.72 32.78 148.52 32.27 148.63 31.73C148.74 31.19 149.13 30.81 149.48 30.88C149.83 30.95 150 31.48 149.92 32Z" fill="#263238"/>
<path d="M143.8 30.72C143.68 31.27 143.3 31.64 142.95 31.57C142.6 31.5 142.4 30.99 142.51 30.45C142.62 29.91 143.01 29.53 143.36 29.61C143.71 29.69 143.91 30.18 143.8 30.72Z" fill="#263238"/>
<path d="M143.51 29.67L142.29 29.02C142.29 29.02 142.74 30.18 143.51 29.67Z" fill="#263238"/>
<path d="M145.48 32.1C144.733 33.2337 143.835 34.2599 142.81 35.15C143.047 35.4038 143.336 35.6038 143.657 35.7366C143.977 35.8695 144.323 35.932 144.67 35.92L145.48 32.1Z" fill="#ED893E"/>
<path d="M147.17 38.66C146.897 38.6466 146.626 38.6098 146.36 38.55C146.339 38.5464 146.319 38.5386 146.3 38.527C146.282 38.5154 146.267 38.5003 146.255 38.4826C146.243 38.4648 146.234 38.4448 146.23 38.4238C146.226 38.4027 146.226 38.381 146.23 38.36C146.242 38.3182 146.269 38.2826 146.306 38.2602C146.343 38.2379 146.388 38.2307 146.43 38.24C147.1 38.3953 147.798 38.3912 148.467 38.228C149.135 38.0647 149.756 37.7469 150.28 37.3C150.295 37.2849 150.313 37.2729 150.333 37.2647C150.352 37.2565 150.374 37.2523 150.395 37.2523C150.416 37.2523 150.437 37.2565 150.457 37.2647C150.477 37.2729 150.495 37.2849 150.51 37.3C150.525 37.3151 150.537 37.333 150.545 37.3527C150.553 37.3724 150.558 37.3936 150.558 37.415C150.558 37.4363 150.553 37.4575 150.545 37.4772C150.537 37.4969 150.525 37.5149 150.51 37.53C150.057 37.932 149.528 38.2392 148.954 38.4333C148.381 38.6273 147.774 38.7044 147.17 38.66V38.66Z" fill="#263238"/>
<path d="M152.64 31.29C152.571 31.2878 152.504 31.2633 152.45 31.22C152.396 31.1767 152.357 31.1171 152.34 31.05C152.139 30.5602 151.839 30.1173 151.459 29.749C151.078 29.3807 150.626 29.0951 150.13 28.91C150.048 28.8806 149.981 28.8199 149.943 28.7412C149.906 28.6625 149.901 28.5722 149.93 28.49C149.944 28.4494 149.967 28.4122 149.996 28.3805C150.025 28.3489 150.06 28.3234 150.1 28.3057C150.139 28.2879 150.181 28.2783 150.224 28.2773C150.267 28.2763 150.31 28.284 150.35 28.3C150.947 28.5179 151.491 28.862 151.943 29.309C152.395 29.756 152.745 30.2952 152.97 30.89C152.981 30.9307 152.983 30.9731 152.977 31.0147C152.971 31.0563 152.957 31.0964 152.936 31.1326C152.914 31.1689 152.886 31.2005 152.853 31.2258C152.819 31.2511 152.781 31.2695 152.74 31.28C152.708 31.2927 152.674 31.2962 152.64 31.29V31.29Z" fill="#263238"/>
<path d="M142.56 27.51C142.502 27.5065 142.446 27.4882 142.397 27.4566C142.347 27.4251 142.307 27.3815 142.28 27.33C142.241 27.2529 142.234 27.1637 142.26 27.0815C142.286 26.9992 142.344 26.9305 142.42 26.89C142.876 26.6332 143.388 26.4924 143.911 26.4802C144.434 26.468 144.953 26.5847 145.42 26.82C145.458 26.8397 145.492 26.8671 145.519 26.9005C145.546 26.9338 145.565 26.9724 145.577 27.0137C145.588 27.0551 145.59 27.0983 145.584 27.1407C145.578 27.1831 145.563 27.2237 145.54 27.26C145.519 27.297 145.491 27.3295 145.458 27.3557C145.424 27.3818 145.386 27.401 145.345 27.4122C145.304 27.4233 145.261 27.4262 145.219 27.4207C145.177 27.4152 145.137 27.4014 145.1 27.38V27.38C144.729 27.2093 144.323 27.1285 143.914 27.1441C143.506 27.1598 143.107 27.2714 142.75 27.47C142.692 27.5027 142.626 27.5167 142.56 27.51Z" fill="#263238"/>
<path d="M149.63 31L148.41 30.35C148.41 30.35 148.86 31.47 149.63 31Z" fill="#263238"/>
<path d="M140.13 208.67L133.37 208.35L131.93 192.59L138.69 192.91L140.13 208.67Z" fill="#FFB573"/>
<path d="M133 207.31L139.81 203.93C139.925 203.865 140.06 203.847 140.189 203.879C140.317 203.91 140.428 203.989 140.5 204.1L143.96 209.1C144.042 209.23 144.095 209.376 144.117 209.528C144.14 209.68 144.13 209.835 144.088 209.983C144.047 210.13 143.975 210.268 143.877 210.386C143.779 210.505 143.657 210.601 143.52 210.67C141.12 211.8 139.91 212.23 136.91 213.72C135.07 214.64 131.66 217.1 129.11 218.36C126.56 219.62 125.18 217.17 126.11 216.42C128.882 214.329 130.971 211.461 132.11 208.18C132.294 207.793 132.609 207.485 133 207.31Z" fill="#263238"/>
<g opacity="0.2">
<path opacity="0.2" d="M138.69 192.91L131.93 192.59L132.73 201.38L139.48 201.48L138.69 192.91Z" fill="black"/>
</g>
<path d="M144.7 94.06C144.7 94.06 127.15 127.87 126.34 140.91C125.5 154.29 131.11 199.08 131.11 199.08L140.33 199.51C140.33 199.51 141.55 160 141 141C146.7 127.39 171.64 107.73 163.51 93L144.7 94.06Z" fill="#263238"/>
<path d="M140.94 200.02L130.3 199.52L129.62 193.64L141.13 192.08L140.94 200.02Z" fill="white"/>
<path d="M130.2 209.68H130.12C129.97 209.634 129.834 209.55 129.725 209.436C129.617 209.322 129.539 209.182 129.5 209.03C129.465 208.94 129.456 208.843 129.471 208.748C129.487 208.653 129.528 208.564 129.59 208.49C130.13 207.82 132.59 208.09 132.84 208.12C132.872 208.124 132.903 208.138 132.928 208.159C132.952 208.181 132.971 208.209 132.98 208.24C132.986 208.271 132.983 208.303 132.973 208.333C132.962 208.363 132.944 208.389 132.92 208.41C132.25 208.94 131 209.84 130.2 209.68ZM132.42 208.38C131.42 208.3 130.12 208.32 129.83 208.67C129.808 208.706 129.796 208.748 129.796 208.79C129.796 208.832 129.808 208.874 129.83 208.91C129.854 209.011 129.904 209.104 129.974 209.181C130.044 209.258 130.132 209.316 130.23 209.35C130.65 209.48 131.46 209.12 132.42 208.38Z" fill="white"/>
<path d="M132.56 208.39C131.74 208.23 130.3 207.55 130.12 206.87C130.085 206.747 130.094 206.617 130.145 206.5C130.196 206.383 130.286 206.288 130.4 206.23C130.501 206.161 130.617 206.116 130.738 206.096C130.859 206.077 130.982 206.085 131.1 206.12C132.1 206.38 132.93 208.12 132.97 208.19C132.982 208.215 132.989 208.242 132.989 208.27C132.989 208.298 132.982 208.325 132.97 208.35C132.954 208.374 132.931 208.394 132.905 208.406C132.878 208.418 132.849 208.423 132.82 208.42L132.56 208.39ZM130.97 206.39C130.903 206.375 130.834 206.375 130.767 206.389C130.699 206.402 130.636 206.43 130.58 206.47C130.4 206.58 130.41 206.68 130.43 206.76C130.55 207.21 131.73 207.86 132.53 208.03C132.21 207.46 131.59 206.55 131.02 206.4L130.97 206.39Z" fill="white"/>
<path d="M163.87 91.3699L164.71 93.7899C164.82 93.9699 164.61 94.1799 164.29 94.1999L136 95.7899C135.75 95.7899 135.54 95.6899 135.52 95.5399L135.13 93.0899C135.13 92.9199 135.31 92.7699 135.58 92.7499L163.39 91.1899C163.479 91.1715 163.571 91.1786 163.656 91.2105C163.741 91.2424 163.815 91.2976 163.87 91.3699Z" fill="white"/>
<path d="M160.22 94.69H160.97C161.12 94.69 161.22 94.6 161.21 94.51L160.68 91.33C160.68 91.24 160.53 91.17 160.38 91.18H159.64C159.49 91.18 159.38 91.27 159.4 91.37L159.93 94.54C159.94 94.63 160.07 94.7 160.22 94.69Z" fill="#263238"/>
<path d="M138.14 95.94L138.88 95.89C139.03 95.89 139.14 95.8 139.13 95.71L138.6 92.54C138.6 92.44 138.45 92.37 138.3 92.38H137.55C137.41 92.38 137.3 92.48 137.31 92.57L137.84 95.74C137.86 95.87 138 95.94 138.14 95.94Z" fill="#263238"/>
<path d="M149.14 95.3199H149.88C150.03 95.3199 150.14 95.2199 150.12 95.1299L149.59 91.9599C149.59 91.8699 149.44 91.7999 149.29 91.7999L148.55 91.8499C148.4 91.8499 148.29 91.9399 148.31 92.0299L148.84 95.1999C148.85 95.2599 149 95.3299 149.14 95.3199Z" fill="#263238"/>
<path d="M174.26 103.37L169.96 108.82L176.82 108.23C176.82 108.23 178.37 105.47 177.03 103L174.26 103.37Z" fill="#FFB573"/>
<path d="M172.07 59.5499C173.48 63.2399 174.7 66.8799 175.79 70.6299C176.917 74.3681 177.845 78.1634 178.57 81.9999C178.76 82.9999 178.92 83.9999 179.07 84.9999L179.25 86.5899L179.33 88.1499C179.372 90.1729 179.291 92.1966 179.09 94.2099C178.68 98.13 177.934 102.008 176.86 105.8L173.48 105.18C173.67 101.46 173.83 97.6699 173.71 93.9899C173.66 92.1599 173.56 90.3399 173.35 88.5899L173.17 87.2999L172.94 86.0499C172.75 85.1799 172.56 84.2699 172.34 83.3799C171.45 79.7999 170.34 76.2199 169.22 72.6399C168.1 69.0599 166.83 65.4799 165.59 61.9999L172.07 59.5499Z" fill="#FFB573"/>
<path d="M165.9 53C171.48 53.32 174.9 63.87 174.9 63.87L163.47 68.55C163.47 68.55 161.11 63.28 161.38 59.55C161.65 55.82 162.82 52.8 165.9 53Z" fill="#3D45A3"/>
<path d="M170.24 114.5L175.96 113.7L176.82 108.23L169.96 108.82L170.24 114.5Z" fill="#FFB573"/>
<path d="M161.62 38C160.95 39.103 159.872 39.8972 158.62 40.21C156.95 40.6 156.18 39.09 156.7 37.54C157.18 36.15 158.62 34.27 160.27 34.54C160.633 34.6114 160.973 34.7734 161.257 35.011C161.541 35.2486 161.761 35.5541 161.896 35.8991C162.03 36.2442 162.076 36.6177 162.027 36.985C161.979 37.3522 161.839 37.7014 161.62 38V38Z" fill="#FFB573"/>
<path d="M261.1 83.56L251.1 73.56C250.967 73.4274 250.788 73.3529 250.6 73.3529C250.413 73.3529 250.233 73.4274 250.1 73.56C249.967 73.6926 249.893 73.8725 249.893 74.06C249.893 74.2475 249.967 74.4274 250.1 74.56L254.62 79.07L245.1 88.59C245.034 88.6557 244.982 88.7336 244.947 88.8194C244.911 88.9052 244.893 88.9972 244.893 89.09C244.893 89.1829 244.911 89.2748 244.947 89.3606C244.982 89.4464 245.034 89.5244 245.1 89.59C245.166 89.6557 245.244 89.7078 245.329 89.7433C245.415 89.7788 245.507 89.7971 245.6 89.7971C245.693 89.7971 245.785 89.7788 245.871 89.7433C245.956 89.7078 246.034 89.6557 246.1 89.59L255.62 80.07L260.14 84.59C260.206 84.6557 260.284 84.7078 260.369 84.7433C260.455 84.7788 260.547 84.7971 260.64 84.7971C260.733 84.7971 260.825 84.7788 260.911 84.7433C260.996 84.7078 261.074 84.6557 261.14 84.59C261.206 84.5244 261.258 84.4464 261.293 84.3606C261.329 84.2748 261.347 84.1829 261.347 84.09C261.347 83.9972 261.329 83.9052 261.293 83.8194C261.258 83.7336 261.206 83.6557 261.14 83.59L261.1 83.56Z" fill="#3D45A3"/>
<path opacity="0.3" d="M261.1 83.56L251.1 73.56C250.967 73.4274 250.788 73.3529 250.6 73.3529C250.413 73.3529 250.233 73.4274 250.1 73.56C249.967 73.6926 249.893 73.8725 249.893 74.06C249.893 74.2475 249.967 74.4274 250.1 74.56L254.62 79.07L245.1 88.59C245.034 88.6557 244.982 88.7336 244.947 88.8194C244.911 88.9052 244.893 88.9972 244.893 89.09C244.893 89.1829 244.911 89.2748 244.947 89.3606C244.982 89.4464 245.034 89.5244 245.1 89.59C245.166 89.6557 245.244 89.7078 245.329 89.7433C245.415 89.7788 245.507 89.7971 245.6 89.7971C245.693 89.7971 245.785 89.7788 245.871 89.7433C245.956 89.7078 246.034 89.6557 246.1 89.59L255.62 80.07L260.14 84.59C260.206 84.6557 260.284 84.7078 260.369 84.7433C260.455 84.7788 260.547 84.7971 260.64 84.7971C260.733 84.7971 260.825 84.7788 260.911 84.7433C260.996 84.7078 261.074 84.6557 261.14 84.59C261.206 84.5244 261.258 84.4464 261.293 84.3606C261.329 84.2748 261.347 84.1829 261.347 84.09C261.347 83.9972 261.329 83.9052 261.293 83.8194C261.258 83.7336 261.206 83.6557 261.14 83.59L261.1 83.56Z" fill="black"/>
<path d="M250.14 84.53C249.555 83.9433 249.226 83.1486 249.226 82.32C249.226 81.4915 249.555 80.6968 250.14 80.11L256.69 73.56C257.276 72.9781 258.069 72.6515 258.895 72.6515C259.721 72.6515 260.514 72.9781 261.1 73.56C261.685 74.1468 262.013 74.9415 262.013 75.77C262.013 76.5986 261.685 77.3933 261.1 77.98L254.55 84.53C253.964 85.112 253.171 85.4386 252.345 85.4386C251.519 85.4386 250.726 85.112 250.14 84.53V84.53Z" fill="#3D45A3"/>
<path d="M249.61 85.0601C248.581 84.0317 247.185 83.4541 245.73 83.4541C244.275 83.4541 242.879 84.0317 241.85 85.0601L249.61 92.8101C250.633 91.7798 251.207 90.3869 251.207 88.9351C251.207 87.4833 250.633 86.0904 249.61 85.0601V85.0601Z" fill="#3D45A3"/>
<path d="M254.773 70.2421L245.863 61.3325C245.109 60.5788 243.887 60.5788 243.134 61.3325L237.901 66.5651C237.147 67.3188 237.147 68.5408 237.901 69.2945L246.811 78.2041C247.564 78.9578 248.786 78.9578 249.54 78.2041L254.773 72.9715C255.526 72.2178 255.526 70.9958 254.773 70.2421Z" fill="#3D45A3"/>
<path opacity="0.3" d="M249.135 77.7359L254.304 72.5669C254.831 72.0397 254.831 71.1849 254.304 70.6577L245.458 61.8118C244.931 61.2846 244.076 61.2846 243.549 61.8118L238.38 66.9808C237.853 67.508 237.853 68.3627 238.38 68.89L247.226 77.7359C247.753 78.2631 248.608 78.2631 249.135 77.7359Z" fill="white"/>
<path d="M273.34 88.7928L264.43 79.8833C263.676 79.1296 262.454 79.1296 261.701 79.8833L256.468 85.1159C255.714 85.8696 255.714 87.0916 256.468 87.8453L265.378 96.7548C266.131 97.5085 267.353 97.5085 268.107 96.7548L273.34 91.5222C274.093 90.7685 274.093 89.5465 273.34 88.7928Z" fill="#3D45A3"/>
<path opacity="0.3" d="M267.687 96.2859L272.856 91.117C273.383 90.5897 273.383 89.735 272.856 89.2078L264.01 80.3619C263.483 79.8346 262.628 79.8347 262.101 80.3619L256.932 85.5308C256.405 86.058 256.405 86.9128 256.932 87.44L265.778 96.2859C266.305 96.8131 267.16 96.8131 267.687 96.2859Z" fill="white"/>
<path opacity="0.7" d="M259.337 77.6803L256.996 75.3398C256.855 75.1992 256.627 75.1992 256.487 75.3398L253.072 78.7551C252.931 78.8957 252.931 79.1236 253.072 79.2642L255.412 81.6047C255.553 81.7453 255.781 81.7453 255.921 81.6047L259.337 78.1894C259.477 78.0488 259.477 77.8209 259.337 77.6803Z" fill="white"/>
</svg>
